<?xml version="1.0" encoding="utf-8"?>
<!-- Generator: Adobe Illustrator 19.1.0, SVG Export Plug-In . SVG Version: 6.00 Build 0)  -->
<svg version="1.1" id="TUOS" xmlns="http://www.w3.org/2000/svg" xmlns:xlink="http://www.w3.org/1999/xlink" x="0px" y="0px"
	 viewBox="0 0 167.5 73.7" style="enable-background:new 0 0 167.5 73.7;" xml:space="preserve">
<style type="text/css">
	.st0{display:none;}
	.st1{display:inline;fill:#32327F;}
	.st2{display:inline;}
	.st3{fill:#FFF200;}
	.st4{fill:#32327F;}
	.st5{fill:#FFFFFF;}
	.st6{fill:#ED1C24;}
</style>
<g class="st0">
	<g>
		<path class="st1" d="M36.1,3.2c1.4,0,2,0.9,1.4,2.4c0.3,0,0.4-0.3,0.6-0.9c1,0.4,1.2,1.6,0.3,2.3c0.5-0.2,1-0.2,1.3,0
			c-0.4,0.3-0.5,0.5-0.5,0.7c0.3-0.2,0.6-0.5,1.2-0.5c0.6,0,1.3,0.4,1.3,1.5c0,1.6-1,1.7-2.3,1.4c0,0.1,0.2,0.4,0.4,0.5
			c-1,0.3-2.3,0-3.1-0.5c0.5,1.6,2.9,2.2,4.7,0.7c0.7,1.9,3.7,2.2,5,0.6c-1.2,0.6-2.6,0.2-3.2-0.4c0.2-0.1,0.7-0.2,0.8-0.5
			c-1,0-1.5-0.4-1.5-1.1c0-0.8,0.8-1.6,1.7-1.6c0.7,0,1,0.5,1.2,1c0.1-0.2,0.1-0.8,0.1-1.2c1.2-0.1,1.4,0.7,1.6,1.1
			c0.4-1.5,1.4-2.6,3.6-2.2C50.5,7,50.2,7.4,50,7.9c0.3-0.2,0.6-0.6,1.4-0.6c1,0,1.5,0.7,1.5,1.4c0,0.7-0.5,1.2-0.8,1.5
			c-0.5-0.8-1.1-0.9-1.6-0.9c-1.3,0-1.9,0.6-2,1c0.4,0.8-0.1,1.4-0.9,1.3c-0.1,0.3-1,1.9-1.3,2.2c0.2,0.6,0.1,1.3-0.3,2
			c0,0.1-0.1,0.8-0.1,0.9c0.1,0.1,0.3,0.2,0.3,0.5c0,1.3-4.6,1.7-10.2,1.7c-2.9,0-10.2-0.3-10.2-1.7c0-0.2,0.1-0.4,0.3-0.5
			c0-0.1-0.1-0.8-0.1-0.9c-0.4-0.7-0.4-1.3-0.2-1.9c-0.3-0.4-1.3-2.1-1.4-2.3c-1.1,0-1.2-0.7-0.9-1.3c-0.5-0.5-1.1-1-2-1
			c-0.6,0-1.1,0.1-1.6,0.8c-0.3-0.2-0.7-0.6-0.7-1.3c0-0.8,0.7-1.3,1.4-1.3c0.7,0,1.1,0.3,1.5,0.7c-0.1-0.4-0.5-1.1-0.9-1.4
			c2.2-0.4,3.2,0.8,3.5,2.3c0.2-0.4,0.6-1.3,1.7-1.2c-0.1,0.4-0.1,0.8,0,1.1c0.3-0.4,0.6-0.9,1.2-0.9c0.8,0,1.8,1,1.8,1.8
			c0,0.8-0.5,1.1-1.6,1c0.2,0.2,0.5,0.4,0.8,0.5c-0.6,0.6-1.9,0.8-3.2,0.3c1.5,1.8,4.4,1.3,5-0.5c1.6,1.5,4.3,0.9,4.8-0.8
			c-0.9,0.6-2.2,0.7-3.2,0.5c0.2-0.1,0.4-0.4,0.4-0.5c-1.4,0.4-2.2,0-2.2-1.4c0-0.8,0.6-1.4,1.2-1.4c0.4,0,0.9,0.2,1.3,0.4
			c0-0.2-0.1-0.4-0.5-0.7c0.3-0.2,0.7-0.3,1.2-0.1c-0.8-0.6-0.7-1.9,0.4-2.3c0.1,0.5,0.3,0.9,0.5,0.9C34,4.1,34.6,3.2,36.1,3.2z"/>
		<g class="st2">
			<path class="st3" d="M22.2,8.5c-0.4-0.7-1-0.9-1.4-0.9c-0.6,0-1.1,0.5-1.1,1.1c0,0.3,0.1,0.6,0.2,0.7C20.2,9.1,20.7,8.4,22.2,8.5
				z"/>
			<path class="st3" d="M52.2,9.4c0.2-0.1,0.3-0.5,0.3-0.7c0-0.6-0.5-1-1.2-1c-0.7,0-1,0.2-1.5,0.8C51.4,8.4,51.9,8.9,52.2,9.4z"/>
			<g>
				<path class="st3" d="M36,18.5c4.3,0,9.6-0.4,9.6-1.3c0-0.6-4.4-1.5-9.6-1.5c-5.2,0-9.5,1-9.5,1.6C26.5,17.7,31,18.4,36,18.5z"/>
				<path class="st3" d="M36,18.5c4.3,0,9.6-0.4,9.6-1.3c0-0.6-4.4-1.5-9.6-1.5c-5.2,0-9.5,1-9.5,1.6C26.5,17.7,31,18.4,36,18.5z"/>
			</g>
			<path class="st3" d="M24.5,11.2c0.2,0.3,1.4,2.3,1.6,2.5c0.5,0.1,1.4,0.2,1.7,0.3c0.3,0.1,0.5,0.6,0.2,0.8
				c-0.3,0.2-1.4,1-1.6,1.1c0,0.1,0,0.4,0.1,0.6c2.5-0.9,5.7-1.2,9.6-1.2c4.7,0,7.4,0.5,9.5,1.3c0-0.2,0.1-0.4,0.1-0.7
				c-0.7-0.4-1.4-0.9-1.6-1.1c-0.3-0.2-0.1-0.7,0.1-0.8c0.5-0.1,1.3-0.3,1.9-0.4c0.1-0.1,1.3-2,1.5-2.4c0.1-0.2,0.4-0.7,0.6-0.8
				c0.5-1.1,1.6-1.5,3.1-1.3c-0.5-0.4-1.4-0.3-1.7-0.2c-0.1,0-0.2,0-0.2-0.1c0.2-0.7,0.3-1.2,0.7-1.8c-2-0.1-2.7,1.5-2.8,2.5
				c0,0.1-0.2,0.2-0.3,0.1C47,8.9,46.7,8.1,46,8c0,0.5,0,0.8-0.2,1.1c-0.1,0.2-0.3,0.1-0.4,0.1c-0.3-0.6-0.6-0.9-1-0.9
				c-0.6,0-0.9,0.3-0.7,0.7c0.1,0.1-0.1,0.2-0.2,0.2C43.3,9,43,9.1,43,9.6c0,0.6,0.5,0.9,1.3,0.8c0.2,0,0.3,0.1,0.2,0.2
				c-0.1,0.1-0.4,0.4-0.6,0.5c0.2,0.1,0.7,0.3,1.4,0.3c0.7,0,1.3-0.2,1.6-0.5c0.1-0.1,0.3,0,0.2,0.2c-0.5,1.4-4,2.9-5.8,0.2
				c-1.6,1.2-4.1,1-4.9-1.2c-0.1-0.3,0.1-0.5,0.4-0.3c0.2,0.1,0.9,0.5,1.5,0.5c0.3,0,0.7,0.1,1,0C39.2,10.3,39,10,39,9.9
				c-0.1-0.2,0.1-0.2,0.3-0.1c0.2,0.1,0.3,0.2,0.8,0.2c0.7,0,1.2-0.6,1.2-0.8c0-0.3-0.2-0.4-0.4-0.4c-0.1,0-0.1-0.2-0.1-0.2
				C40.9,8.5,41,8.4,41,8.2c0-0.3-0.3-0.6-0.8-0.6c-0.4,0-0.8,0.2-1.1,0.3c-0.1,0-0.2,0-0.3-0.1c-0.1-0.2-0.1-0.4,0.2-0.8
				c-0.3-0.1-1.3,0.3-2.2,1.1c-0.1,0.1-0.3-0.2-0.2-0.2c1.1-0.7,1.9-1.4,1.9-2c0-0.4-0.2-0.6-0.4-0.7c-0.2,0.5-0.6,0.7-0.8,0.7
				c-0.1,0-0.2-0.1-0.2-0.2c0-0.1,0.2-0.7,0.2-1.1c0-0.6-0.4-1-0.7-1c-0.3,0-0.4,0.1-0.5,0.3c0,0.1-0.2,0.1-0.2,0
				c-0.1-0.2-0.3-0.3-0.5-0.3c-0.4,0-0.7,0.5-0.7,1c0,0.5,0.2,1,0.2,1.1c0,0.1-0.2,0.1-0.3,0.1c-0.4,0-0.7-0.3-0.8-0.7
				c-0.2,0.1-0.3,0.5-0.3,0.8c0,0.7,0.6,1.2,1.9,2c0.1,0.1,0,0.3-0.2,0.2c-0.9-0.8-1.9-1.2-2.2-1.1c0.2,0.5,0.2,0.6,0.1,0.8
				C33.2,8,33,8.1,32.9,8c-0.3-0.1-0.6-0.3-0.9-0.3c-0.5,0-0.8,0.3-0.8,0.7c0,0.1,0.1,0.3,0.3,0.3c0.1,0,0,0.1,0,0.2
				c-0.2,0-0.3,0.2-0.3,0.4c0,0.4,0.4,0.7,0.9,0.7c0.4,0,0.8-0.1,1-0.2c0.2-0.1,0.3,0,0.2,0.1c0,0.1-0.2,0.4-0.3,0.6
				c0.8,0.1,1.8-0.1,2.5-0.6c0.3-0.2,0.4,0.1,0.4,0.3c-0.3,1.6-2.9,2.8-5,1.3C28.7,14,25.9,13,25,11.2c-0.1-0.2-0.1-0.5,0.2-0.2
				c0.3,0.3,0.9,0.4,1.6,0.4c0.6,0,1,0,1.4-0.3c-0.3-0.1-0.6-0.4-0.7-0.5c-0.1-0.1,0-0.3,0.2-0.3C28.8,10.5,29,10,29,9.7
				c0-0.5-0.2-0.7-0.6-0.6c-0.2,0.1-0.3-0.1-0.2-0.2c0.2-0.3-0.1-0.7-0.6-0.7c-0.4,0-0.6,0.3-0.9,0.8c-0.1,0.1-0.3,0.1-0.4,0
				c-0.1-0.2-0.2-0.6-0.1-1c-0.7,0.1-1.1,0.8-1.3,1.5c0,0.1-0.3,0-0.3-0.1c0-0.8-0.8-2.6-2.7-2.5c0.4,0.5,0.6,1,0.7,1.7
				c0,0.1-0.2,0.2-0.3,0.2C22,8.7,21.5,8.7,20.9,9c1-0.2,2.2,0.1,2.9,1.2C24.1,10.3,24.5,10.8,24.5,11.2z"/>
		</g>
		<g class="st2">
			<path class="st4" d="M35.7,12.1L35.7,12.1c-0.2,0.2-0.7,0.6-1,0.8c-0.1,0.1-0.2,0.2-0.2,0.3c0,0.1,0.1,0.3,0.2,0.4
				c0.2,0.2,0.7,0.6,1,0.8c0.2,0.2,0.5,0.1,0.7,0c0.2-0.1,0.8-0.6,1-0.7c0.1-0.1,0.2-0.2,0.2-0.3c0-0.2-0.1-0.3-0.2-0.4
				c-0.2-0.1-0.8-0.6-1-0.8c-0.1-0.1-0.2-0.1-0.3-0.2C36,12,35.8,12,35.7,12.1z"/>
			<path class="st4" d="M29.8,14.4c0-0.2-0.1-0.6-0.1-0.7c0.2-0.1,0.3-0.2,0.3-0.4c0.4,0,1.4-0.2,1.8-0.3c0.1,0.1,0.3,0.3,0.5,0.3
				c0.1,0.2,0.1,0.7,0.1,0.8c-0.2,0.1-0.3,0.3-0.4,0.4c-1,0.1-1.7,0.2-1.9,0.2C30.1,14.5,30,14.4,29.8,14.4z"/>
			<path class="st4" d="M24.1,9.8c-0.1-0.7-0.6-1.8-1-2.1c-0.1-0.1-0.2-0.1-0.1,0c0.4,0.4,0.8,1.5,0.9,1.9
				C23.9,9.8,24.1,9.9,24.1,9.8z"/>
			<path class="st4" d="M35.6,9c0-0.3,0.2-0.6,0.5-0.6c0.3,0,0.5,0.3,0.5,0.6c0,0.5-0.2,0.7-0.5,0.7C35.7,9.6,35.6,9.3,35.6,9z"/>
			<path class="st4" d="M32.3,8.7c0.3,0,2.4,0,2.6,0C35.1,8.8,35.1,9,35,9c-0.3,0-2.4-0.2-2.6-0.1C32.2,8.8,32.2,8.7,32.3,8.7z"/>
			<path class="st4" d="M36.3,7.7c0,0.1-0.3,0.1-0.3,0C36,7.4,36,5.1,36,5c0-0.2,0.2-0.2,0.2,0C36.2,5.2,36.3,7.6,36.3,7.7z"/>
			<path class="st4" d="M37.2,8.7c0.1,0,2.4,0.1,2.6,0.1c0.1,0,0.2,0.1,0,0.1c-0.3,0-2.3,0-2.6,0.1C37.1,9,37,8.7,37.2,8.7z"/>
			<path class="st4" d="M27.4,9.6c-0.1,0.1-2.3,0.8-2.5,0.9c-0.1,0.1-0.2-0.2-0.1-0.2c0.1-0.1,2.5-0.8,2.6-0.8
				C27.4,9.5,27.5,9.6,27.4,9.6z"/>
			<path class="st4" d="M48,9.8c0.1-0.7,0.6-1.7,0.9-2c0.1-0.1,0.2-0.1,0.1,0c-0.3,0.5-0.7,1.4-0.8,1.9C48.2,9.8,48,9.9,48,9.8z"/>
			<path class="st4" d="M44.7,9.6c0.1,0.1,2.2,0.8,2.3,0.8c0.1,0.1,0.2-0.1,0.1-0.2c-0.1-0.1-2.3-0.7-2.4-0.8
				C44.7,9.5,44.6,9.6,44.7,9.6z"/>
			<path class="st4" d="M42.2,14.3c0-0.2,0.1-0.6,0.1-0.7c-0.2-0.1-0.3-0.2-0.3-0.4c-0.4-0.1-1.4-0.2-1.8-0.3
				c-0.1,0.1-0.3,0.3-0.5,0.3c-0.1,0.2-0.1,0.7-0.1,0.8c0.2,0.1,0.3,0.3,0.4,0.4c1,0.1,1.7,0.2,1.9,0.2C41.9,14.5,42,14.4,42.2,14.3
				z"/>
			<path class="st4" d="M36,16c5.6,0,8.6,0.7,8.6,1.2c0,0.3-0.6,0.4-0.7,0.4c-0.1,0-0.2-0.2-0.1-0.2c0.1-0.1,0.3-0.1,0.3-0.2
				c0-0.3-2.7-0.8-8.1-0.9c-4.5,0-7.9,0.6-7.9,0.9c0,0.1,0.1,0.1,0.2,0.1c0.1,0,0.1,0.2,0,0.2c-0.3,0-0.7-0.1-0.7-0.3
				C27.6,16.5,32.2,15.9,36,16z"/>
		</g>
		<g class="st2">
			<path class="st3" d="M35.9,12.3c0,0,0.2,0,0.2,0c0.2,0.2,0.8,0.7,1,0.9c0.1,0,0,0.2,0,0.2c-0.2,0.1-0.9,0.6-1.1,0.8
				c0,0-0.2,0-0.2,0c-0.3-0.3-0.8-0.6-1-0.8c0,0-0.1-0.2,0-0.2C35.1,12.9,35.7,12.5,35.9,12.3z"/>
			<path class="st3" d="M26.2,15.5c0,0,0.1,0,0.2,0c0.4-0.3,1-0.8,1.3-1c0,0,0-0.2-0.1-0.2c-0.1,0-1-0.2-1.5-0.3
				c-0.1,0-0.1,0-0.2,0.1C25.9,14.5,25.9,15.1,26.2,15.5z"/>
			<path class="st3" d="M46,13.9c0,0-0.1-0.1-0.2,0c-0.5,0.1-1.4,0.3-1.5,0.3c-0.1,0-0.1,0.2,0,0.2c0.4,0.2,1,0.7,1.4,0.9
				c0,0,0.1,0,0.1,0C46.1,15.2,46.2,14.2,46,13.9z"/>
			<path class="st3" d="M30.1,14.2c0.1,0,0.1,0.1,0.2,0.2c0.4-0.1,1.2-0.2,1.6-0.2C32,14.1,32,14,32.1,14c0-0.2,0-0.5-0.1-0.6
				c-0.1,0-0.2-0.1-0.2-0.1c-0.5,0.1-1.2,0.2-1.7,0.2c0,0.1-0.1,0.1-0.1,0.2C30,13.7,30,14,30.1,14.2z"/>
			<path class="st3" d="M41.9,14.2c-0.1,0-0.1,0.1-0.2,0.2c-0.4-0.1-1.2-0.2-1.6-0.2C40,14.1,39.9,14,39.9,14c0-0.2,0-0.5,0.1-0.6
				c0.1,0,0.2-0.1,0.2-0.1c0.5,0.1,1.2,0.2,1.7,0.2c0,0.1,0.1,0.1,0.1,0.2C41.9,13.7,41.9,14,41.9,14.2z"/>
		</g>
	</g>
	<g>
		<g class="st2">
			<path class="st4" d="M49.7,42c-0.1-3-1.2-15.4-1.2-19.9c0-0.3-0.1-0.3-0.3-0.3c-0.1,0-0.4,0-0.8,0.1c0,0,0-0.4,0-0.5
				c0-0.1,0-0.1-0.2-0.1c-0.1,0-0.4,0-0.7,0.1c0-0.3,0-0.7,0-1c-0.6,0.2-1.8,0.3-2.4,0.3c-2.2,0-3.5-0.7-5.2-0.7
				c-0.8,0-1.6,0.1-2.4,0.4c-0.2,0.1-0.4,0-0.6,0c-0.2-0.1-0.9-0.4-1.9-0.4c-1.7,0-4.1,0.8-6.1,0.8c-1.1,0-2-0.3-2.5-0.5
				c0,0.2,0,0.5,0,0.8c-0.3,0-0.6-0.1-0.7-0.1c-0.2,0-0.2,0-0.2,0.2c0,0.2,0,0.3,0,0.5c-0.1,0-0.7,0-0.8-0.1c-0.2,0-0.2,0-0.2,0.3
				C23.5,22,22,42,22,42.4c0,0.6,0,0.7,0.7,0.5c1.2-0.4,6.8-2.1,11.2-1.6c-0.4,1.4,4.7,1.5,4.5,0c4.1-0.6,10.3,1.3,10.8,1.4
				C49.6,42.8,49.7,42.6,49.7,42z"/>
			<g>
				<path class="st3" d="M35.4,40.8c-0.6-0.2-1.5-0.5-3.8-0.5c-3.8,0-6.5,1.2-8.4,0.9c-0.1,0-0.2,0-0.2-0.2c0.3-6,1.1-14.5,1.5-19.2
					c-0.1,0-0.4,0-0.5,0s-0.1,0-0.1,0.1c0,0.1-1.5,20-1.5,20.2c0,0.2,0,0.3,0.2,0.3c0.2,0,4.7-1.5,9-1.5c0.8,0,2.6,0.1,2.7,0.1
					c0.1,0,0.1,0.1,0,0.2c-0.2,1.1,4,0.9,3.8,0.1c0-0.1,0-0.2,0.1-0.2c0.1,0,1.1-0.2,2.3-0.2c3.3,0,8.3,1.2,8.5,1.2
					c0.2,0,0.2-0.1,0.2-0.3c0-0.2-1.1-19.4-1.1-19.5c0-0.1,0-0.2-0.1-0.2c-0.1,0-0.4,0-0.5,0c-0.1,3.6,1,18.8,1,18.9
					c0,0.1,0,0.1-0.1,0.1c-0.3,0.1-0.7,0.1-1.2,0.1c-1.7,0-4.6-0.9-7.3-0.9c-1.2,0-2.5,0.3-3,0.5C36.3,41.1,36,41.1,35.4,40.8z"/>
				<g>
					<path class="st5" d="M35.9,21c0-0.1-0.1-0.2-0.1-0.3c-0.2-0.2-0.8-0.5-1.7-0.5c-2.1,0-4.2,0.9-6.3,0.9c-0.8,0-1.4-0.1-2-0.3
						c-0.1,1.1-1.1,17.1-1.3,18.9c1.8,0.3,3.6-0.9,7.4-0.9c2.3,0,3.8,0.7,4,0.9c0.2,0.1,0.3,0.1,0.6,0c0.6-0.3,2.2-0.8,4-0.8
						c2.5,0,4.9,1.2,6.4,0.9c0.1-6.1-1-13.8-1-18.8c-0.3,0-1.3,0.1-1.7,0.1c-2.2,0-3.6-0.8-5.5-0.8c-1.1,0-1.9,0.4-2.2,0.6
						c-0.1,0.1-0.1,0.1-0.1,0.2c0,3.9,0,14.4-0.2,18.1c0,0.2-0.4,0.2-0.4,0C36.1,35,35.9,24.5,35.9,21z"/>
					<path class="st5" d="M47.1,21.7c0-0.1,0-0.1-0.1-0.1c0,0-0.3,0-0.4,0c0,5.9,1.1,14.3,0.9,18.7c-1.7,0.3-4-0.8-7-0.8
						c-2.7,0-3.8,0.5-4,0.6c-0.1,0.1-0.3,0-0.5,0c-0.6-0.3-2.1-0.6-4.1-0.6c-4.3,0-5.5,0.9-7.8,0.8c0.3-5.2,0.9-14.8,1.2-19
						c-0.1,0-0.2,0-0.3,0c-0.1,0-0.1,0-0.1,0.1c-0.5,5.3-1,13.4-1.4,19.3c0,0.1,0,0.1,0.1,0.2c2.4,0.3,4.4-0.9,8.1-0.9
						c1.9,0,3.2,0.2,4.2,0.6c0.4,0.2,0.6,0.1,1,0c0.9-0.4,2-0.6,3.1-0.6c3.5,0,6.3,1.2,8.2,0.9c0.1,0,0.1-0.1,0.1-0.2
						C48.1,40.7,47.2,24.7,47.1,21.7z"/>
				</g>
			</g>
		</g>
		<g class="st2">
			<g>
				<path class="st6" d="M26.9,32.8c-0.2,0-0.3-0.1-0.5-0.2c-0.1,0-0.3,0-0.4,0.1c-0.1,0.2-0.2,0.1-0.2,0c0-0.2,0.1-4.7,0.1-4.9
					c0-0.4-0.1-0.5-0.4-0.4c-0.1,0-0.1-0.2,0-0.2c0.1,0,0.9-0.3,1-0.3c0.1,0,0.1,0.1,0.1,0.1c0,0.1,0,0.3,0,0.5
					c0.1-0.2,0.3-0.4,0.5-0.6c0.1-0.1,0.2-0.1,0.3-0.1c0.4,0.3,1,1.1,0.9,3C28.4,30.6,27.6,32.9,26.9,32.8z M27.1,27.6
					c-0.2,0-0.3,0.2-0.5,0.5c0,1.1-0.1,2.9-0.2,4.1c0.4,0.1,0.4,0.3,0.5,0.3c0.1,0,0.1,0,0.2-0.1c0.4-0.3,0.7-1.2,0.7-1.7
					C27.8,28.8,27.4,27.6,27.1,27.6z"/>
				<path class="st4" d="M29.3,32.6c0,0.2-0.3,0.1-0.3,0c0-0.2-0.1-2.5-0.1-2.7c0-0.3-0.2-0.3-0.4-0.4c-0.1,0-0.1-0.1,0-0.2
					c0.1,0,0.9-0.4,1-0.4c0.1,0,0.1,0.1,0.1,0.1C29.6,29.5,29.5,31.7,29.3,32.6z M29.3,28.4c-0.1,0.2-0.3,0.1-0.3,0
					c0-0.1-0.1-0.4-0.1-0.5c0-0.1-0.1-0.2-0.2-0.2c0,0-0.1-0.1,0-0.1c0,0,0.5-0.2,0.7-0.3c0.1,0,0.1,0,0.1,0.1
					C29.5,27.5,29.3,28.3,29.3,28.4z"/>
				<path class="st4" d="M30.6,32.5c-0.4,0-0.8-0.3-0.9-0.4c0-0.1-0.1-0.1,0-0.1c0.1,0,0.3-0.4,0.3-0.5c0-0.1,0.1,0,0.1,0
					c0.1,0.3,0.3,0.7,0.6,0.7c0.2,0,0.4-0.3,0.4-0.6c0-0.4-1.3-0.4-1.3-1.5c0-0.3,0.1-0.8,0.8-1.2c0.1-0.1,0.1-0.1,0.2,0
					c0,0,0.4,0.3,0.6,0.5c0.1,0.1,0.1,0,0.1,0.1c0,0.1-0.2,0.2-0.2,0.3c-0.1,0-0.2,0-0.2,0c-0.2-0.1-0.4-0.3-0.5-0.4c0,0,0,0-0.1,0
					c-0.2,0.1-0.2,0.3-0.2,0.5c0,0.6,1.2,0.6,1.2,1.4C31.6,31.7,31.2,32.5,30.6,32.5z"/>
				<path class="st4" d="M32.7,32.5c-0.7,0-1-0.8-1-1.6c0-0.7,0.6-1.4,0.9-1.8c0.1-0.1,0.1-0.1,0.2-0.1c0,0,0.4,0.4,0.6,0.6
					c0,0,0.2,0,0.2,0.1c0,0.1-0.2,0.3-0.3,0.3c-0.1,0.1-0.2,0.1-0.3,0c-0.2-0.1-0.3-0.3-0.4-0.4c0,0,0,0-0.1,0
					c-0.2,0.2-0.3,0.6-0.3,0.9c0,1.1,0.3,1.6,0.7,1.6c0.2,0,0.3-0.2,0.5-0.4c0.1-0.1,0.1,0,0.1,0.1C33.4,32.2,33.2,32.5,32.7,32.5z"
					/>
				<path class="st4" d="M34.6,32.5c-0.7,0-1-0.8-1-1.6c0-0.7,0.5-1.4,0.8-1.8c0.1-0.1,0.3-0.1,0.3-0.1c0.2,0.1,0.8,0.6,0.8,1
					c0,0.2-0.9,0.9-1.3,1.2c0.1,0.6,0.4,0.8,0.7,0.8c0.3,0,0.5-0.2,0.7-0.4c0.1-0.1,0.1,0,0.1,0.1C35.4,32.2,35.1,32.5,34.6,32.5z
					 M34.5,29.4c-0.1,0-0.1,0-0.1,0c-0.2,0.3-0.2,0.7-0.2,1c0,0.2,0,0.4,0,0.5c0.3-0.2,0.7-0.7,0.7-1C34.9,29.8,34.7,29.6,34.5,29.4
					z"/>
			</g>
			<g>
				<path class="st6" d="M38.2,32.8c-0.2,0-0.3-0.1-0.5-0.1c-0.1,0-0.3,0-0.4,0.1c0,0.1-0.2,0.2-0.2,0c0-0.2,0-4.6,0-4.8
					c0-0.3-0.1-0.4-0.4-0.4c-0.1,0-0.1-0.1,0-0.2c0.1,0,0.8-0.4,0.9-0.4c0.1,0,0.2,0.1,0.2,0.1c0,0.1,0,0.2,0,0.4
					c0.1-0.2,0.3-0.4,0.5-0.6c0.1-0.1,0.2-0.1,0.3-0.1c0.6,0.3,1.1,1.2,1.1,3.1C39.6,30.9,38.8,32.8,38.2,32.8z M38.1,27.5
					c-0.2,0-0.3,0.2-0.4,0.4c0,1,0,2.8-0.1,4.2c0.4,0.1,0.4,0.3,0.5,0.3c0.1,0,0.1,0,0.2-0.1c0.5-0.4,0.6-1.3,0.6-1.9
					C38.9,28.2,38.5,27.5,38.1,27.5z"/>
				<path class="st4" d="M40.8,32.5c-0.5,0-1-0.8-1-1.7c0-0.9,0.7-1.8,1.2-1.8c0.6,0,1,0.9,1,1.7C42,31.4,41.3,32.5,40.8,32.5z
					 M40.7,29.4c-0.2,0-0.4,0.4-0.4,0.7c0,1.1,0.5,1.9,0.7,1.9c0.3,0,0.4-0.3,0.4-0.7C41.5,30.3,41,29.4,40.7,29.4z"/>
				<path class="st4" d="M43.2,32.5c-0.6,0-1-0.9-1-1.6c0-0.7,0.5-1.5,0.9-1.8c0.2-0.1,0.2-0.1,0.3,0c0,0,0.3,0.4,0.5,0.6
					c0,0,0.2,0,0.1,0.1c0,0.1-0.2,0.2-0.3,0.3c-0.1,0.1-0.2,0.1-0.3,0c-0.2-0.1-0.3-0.4-0.4-0.5c0,0,0,0-0.1,0
					c-0.2,0.1-0.3,0.4-0.3,0.8c0,1.1,0.4,1.7,0.8,1.7c0.2,0,0.4-0.2,0.5-0.4c0.1-0.1,0.1,0,0.1,0.1C43.9,32.1,43.7,32.5,43.2,32.5z"
					/>
				<path class="st4" d="M45.3,32.5c-0.6,0-1.1-0.7-1.1-1.5c0-0.8,0.4-1.6,1-2c0.1-0.1,0.2,0,0.3,0c0.3,0.1,0.8,0.8,0.8,1.2
					c0,0.2-1,0.7-1.4,0.9c0.1,0.6,0.5,0.9,0.8,0.9c0.3,0,0.5-0.2,0.7-0.4c0.1-0.1,0.1,0.1,0.1,0.1C46,32.2,45.8,32.5,45.3,32.5z
					 M45.2,29.5c-0.1,0-0.1,0-0.1,0c-0.2,0.2-0.3,0.6-0.3,1c0,0.2,0,0.3,0,0.5c0.3-0.1,0.7-0.4,0.7-0.7
					C45.5,29.9,45.4,29.7,45.2,29.5z"/>
			</g>
		</g>
	</g>
</g>
<g>
	<g>
		<path class="st5" d="M95.2,9.8c-0.3-3.4-0.7-4.2-2.9-4.2h-1v10.1c0,0.9,0.4,1,0.9,1h1.6v0.7H87v-0.7h1.6c0.5,0,0.9-0.2,0.9-1V5.6
			h-1c-2.2,0-2.6,0.9-2.9,4.2H85v-5h10.8v5H95.2z"/>
		<path class="st5" d="M102.4,17.4v-0.6h0.6c0.5,0,0.9-0.2,0.9-1v-4.8c0-0.4-0.1-1.5-1.3-1.5c-1.7,0-2.7,1.8-2.7,3.6v2.7
			c0,0.9,0.4,1,0.9,1h0.6v0.6h-5v-0.6h0.8c0.5,0,0.9-0.2,0.9-1V6.6c0-0.9-0.4-1-0.9-1h-0.8V4.9h3.4v5.4c0.5-1,1.5-1.8,3.1-1.8
			c1.6,0,2.5,1.1,2.7,2.1v5.1c0,0.9,0.4,1,0.9,1h0.8v0.6H102.4z"/>
		<path class="st5" d="M111.8,17.6c-3.1,0-4.1-2.2-4.1-4.1c0-2.5,1.4-5,4-5c2.3,0,3.5,2,3.5,4.5l-0.2,0.3h-5.5
			c0,2.3,0.9,3.6,2.7,3.6c1.9,0,2.6-1.5,2.5-2.7h0.7C115.4,15.8,114.4,17.6,111.8,17.6z M111.7,9.2c-1.2,0-2.1,1.3-2.3,3.3h4
			C113.6,11.2,113.1,9.2,111.7,9.2z"/>
	</g>
	<g>
		<path class="st5" d="M95.9,23.5c-0.5,0-0.9,0.2-0.9,1v6.7c0,1.7-0.8,4.4-4.4,4.4c-3,0-4.3-1.9-4.5-3.4v-7.7c0-0.9-0.4-1-0.9-1
			h-1.2v-0.7h6.4v0.7h-1.5c-0.5,0-0.9,0.2-0.9,1v7.1c0,2.4,1.6,3.2,3,3.2c1.8,0,3.2-1.1,3.2-3.6v-6.7c0-0.9-0.4-1-0.9-1h-1.5v-0.7
			h5.5v0.7H95.9z"/>
		<path class="st5" d="M102.4,35.4v-0.6h0.6c0.5,0,0.9-0.2,0.9-1.1v-4.7c0-0.4-0.1-1.5-1.3-1.5c-1.7,0-2.5,1.8-2.5,3.6v2.7
			c0,0.9,0.4,1.1,0.9,1.1h0.6v0.6h-5v-0.6h0.8c0.5,0,0.9-0.2,0.9-1.1v-5.4c0-0.9-0.4-1-0.9-1h-0.8v-0.6h3.3l0.1,1.7
			c0.5-1,1.3-1.8,2.9-1.8c1.6,0,2.5,1.1,2.7,2.1v5c0,0.9,0.4,1.1,0.9,1.1h0.7v0.6H102.4z"/>
		<path class="st5" d="M107.7,35.4v-0.6h0.7c0.5,0,0.9-0.2,0.9-1v-5.4c0-0.9-0.4-1-0.9-1h-0.8v-0.6h3.4v7.1c0,0.9,0.4,1,0.9,1h0.8
			v0.6H107.7z M110,25c-0.6,0-1-0.5-1-1.2c0-0.6,0.5-1.2,1-1.2c0.6,0,1,0.5,1,1.2C111,24.5,110.6,25,110,25z"/>
		<path class="st5" d="M121.6,27.3c-0.6,0-1.1,0.4-1.3,1.1l-2.8,7h-0.7l-2.6-7c-0.3-0.9-0.8-1.1-1.4-1.1h-0.6v-0.6h5.1v0.6h-0.7
			c-0.5,0-1,0.2-0.7,1.1l1.8,4.9l1.7-4.6c0.3-0.7,0.3-1.4-0.6-1.4h-0.6v-0.6h3.7v0.6H121.6z"/>
		<path class="st5" d="M126,35.6c-3.1,0-4.1-2.3-4.1-4.2c0-2.5,1.4-5.1,4-5.1c2.3,0,3.5,2,3.5,4.5l-0.2,0.3h-5.5
			c0,2.3,0.9,3.8,2.7,3.8c1.9,0,2.6-1.5,2.5-2.7h0.7C129.6,33.8,128.6,35.6,126,35.6z M125.9,27.1c-1.2,0-2.1,1.3-2.3,3.3h4
			C127.8,29.1,127.3,27.1,125.9,27.1z"/>
		<path class="st5" d="M136.4,29.5c-0.6,0-0.9-0.5-0.9-1c0-0.7,0.4-1.2,1-1.4c-1.4-0.3-2.8,1.4-2.8,3.8v2.7c0,0.9,0.4,1.1,0.9,1.1h1
			v0.6h-5.4v-0.6h0.8c0.5,0,0.9-0.2,0.9-1.1v-5.4c0-0.9-0.4-1-0.9-1h-0.8v-0.6h3.3l0.1,1.6c0.4-1,1.4-1.8,2.5-1.8
			c0.8,0,1.4,0.7,1.4,1.6C137.5,28.8,137.1,29.5,136.4,29.5z"/>
		<path class="st5" d="M142.1,35.6c-1,0-2-0.5-2.4-1.1l-0.5,1h-0.6v-3.8h0.6c0.2,1.4,1.1,3.1,2.8,3.1c0.8,0,1.6-0.4,1.6-1.3
			c0-2-5-1.5-5-4.5c0-1.5,1.1-2.7,2.8-2.7c0.8,0,1.7,0.3,2.2,0.9l0.6-0.8h0.4v3.3H144c-0.4-1.8-1.3-2.7-2.5-2.7
			c-1,0-1.5,0.7-1.5,1.3c0,2.2,5.1,1.5,5.1,4.4C145.1,34.5,143.9,35.6,142.1,35.6z"/>
		<path class="st5" d="M146.2,35.4v-0.6h0.7c0.5,0,0.9-0.2,0.9-1v-5.4c0-0.9-0.4-1-0.9-1H146v-0.6h3.4v7.1c0,0.9,0.4,1,0.9,1h0.8
			v0.6H146.2z M148.4,25c-0.6,0-1-0.5-1-1.2c0-0.6,0.5-1.2,1-1.2c0.6,0,1,0.5,1,1.2C149.5,24.5,149,25,148.4,25z"/>
		<path class="st5" d="M155.2,35.5c-0.8,0-2-0.6-2.2-1.7v-6.4h-1.3v-0.7c1.2-0.2,2.1-1,2.2-3.9h0.8v3.8h2.6v0.8h-2.6v5.7
			c0,0.8,0.4,1.3,1,1.3c0.8,0,1.2-0.6,1.2-1.4v-2.6h0.8v2.9C157.7,34.4,156.8,35.5,155.2,35.5z"/>
		<path class="st5" d="M167.2,27.3c-0.6,0-1,0.4-1.3,1.1l-3.3,7.9c-0.9,2.3-1.6,3.5-3.2,3.5c-0.8,0-1.5-0.7-1.5-1.6
			c0-0.7,0.4-1.4,1.1-1.4c0.4,0,0.8,0.5,0.8,1c0,0.4-0.2,0.9-0.6,1.2c1,0.3,2.3-1.4,2.8-3.9l-2.4-6.8c-0.3-0.9-0.8-1.1-1.4-1.1H158
			v-0.6h4.9v0.6h-0.7c-0.5,0-1,0.2-0.7,1.1l1.7,4.7l1.8-4.4c0.3-0.7,0.3-1.4-0.6-1.4h-0.7v-0.6h3.8v0.6H167.2z"/>
	</g>
	<g>
		<path class="st5" d="M90.6,53.6c-3.5,0-5.4-3.4-5.4-6.3c0-3.6,2.3-6.7,5.4-6.7c4,0,5.5,4.1,5.5,6.5C96.1,51.2,93.6,53.6,90.6,53.6
			z M90.7,41.4c-2.7,0-3.6,2.8-3.6,5.9c0,4.5,2.1,5.5,3.7,5.5c2.1,0,3.4-2.2,3.4-5.4C94.2,45,93.5,41.4,90.7,41.4z"/>
		<path class="st5" d="M102.2,43.4c-0.4,0-0.8-0.3-0.8-0.8c0-0.4,0.3-0.8,0.8-1c-0.1-0.2-0.4-0.2-0.5-0.2c-0.9,0-1.4,0.7-1.4,1.8
			c0,0.7,0.2,1.7,0.3,2.3h2.1v0.8h-2.1v5.5c0,0.9,0.4,1,0.9,1h1v0.6h-5.4v-0.6H98c0.5,0,0.9-0.2,0.9-1v-5.5h-1.7v-0.8h1.6
			c-0.1-0.6-0.2-1.4-0.2-1.8c0-1.6,1.1-3,2.8-3c1.2,0,1.8,0.9,1.8,1.5C103.3,43,102.6,43.4,102.2,43.4z"/>
	</g>
	<g>
		<path class="st5" d="M91.2,71.7c-1.7,0-3-0.9-3.5-1.7l-0.8,1.4h-0.5v-5.5H87c0.3,2.5,1.5,5.1,4.1,5.1c1.4,0,2.5-0.8,2.5-2.2
			c0-4.2-7.4-1.5-7.4-6.7c0-1.5,1.2-3.5,3.7-3.5c1.6,0,2.6,0.6,3.3,1.4l0.6-1.4h0.5v5.3h-0.6c-0.2-2.6-1.3-4.5-3.5-4.5
			c-2.1,0-2.6,1.5-2.6,2.2c0,3.9,7.5,1.6,7.5,6.3C95,70.4,93,71.7,91.2,71.7z"/>
		<path class="st5" d="M101.4,71.4v-0.6h0.6c0.5,0,0.9-0.2,0.9-1V65c0-0.4-0.1-1.5-1.3-1.5c-1.7,0-2.5,1.8-2.5,3.6v2.7
			c0,0.9,0.4,1,0.9,1h0.6v0.6h-5v-0.6h0.8c0.5,0,0.9-0.2,0.9-1v-9.8c0-0.9-0.4-1-0.9-1h-0.8v-0.6h3.4v6.1c0.5-1,1.3-1.8,2.9-1.8
			c1.6,0,2.5,1.1,2.7,2.1v5c0,0.9,0.4,1,0.9,1h0.8v0.6H101.4z"/>
		<path class="st5" d="M111,71.7c-3.1,0-4.1-2.3-4.1-4.2c0-2.5,1.4-5.1,4-5.1c2.2,0,3.5,2,3.5,4.5l-0.2,0.3h-5.5
			c0,2.3,0.9,3.8,2.7,3.8c1.9,0,2.6-1.5,2.5-2.7h0.7C114.5,69.9,113.5,71.7,111,71.7z M110.9,63.2c-1.2,0-2.1,1.3-2.3,3.3h4
			C112.7,65.1,112.2,63.2,110.9,63.2z"/>
		<path class="st5" d="M120.5,60.7c-0.4,0-0.8-0.3-0.8-0.8c0-0.4,0.3-0.8,0.8-1c-0.1-0.2-0.5-0.3-1-0.3c-1.1,0-1.6,0.9-1.6,1.8
			c0,0.7,0.2,1.7,0.3,2.3h1.9v0.8h-1.9v6.3c0,0.9,0.4,1,0.9,1h0.8v0.6h-5v-0.6h0.6c0.5,0,0.9-0.2,0.9-1v-6.3h-1.5v-0.8h1.4
			c-0.1-0.6-0.2-1.4-0.2-1.8c0-1.6,1.3-3.1,3.1-3.1c1.2,0,2.2,0.8,2.2,1.6C121.6,60.3,121,60.7,120.5,60.7z"/>
		<path class="st5" d="M128.2,61.3c-0.6,0-1-0.5-1-1.1c0-0.4,0.2-0.9,0.6-1.1c-0.4-0.4-0.9-0.6-1.5-0.6c-2,0-2.9,1.7-2.4,4.2h1.9
			v0.8H124v6.3c0,0.9,0.4,1,0.9,1h0.9v0.6h-5.1v-0.6h0.6c0.5,0,0.9-0.2,0.9-1v-6.3h-1.5v-0.8h1.4c-0.5-2.3,0.7-4.9,4.1-4.9
			c1.6,0,3.1,1,3.1,2C129.4,60.7,129,61.3,128.2,61.3z M126.5,71.4v-0.6h0.7c0.5,0,0.9-0.2,0.9-1v-5.4c0-0.9-0.4-1-0.9-1h-0.8v-0.6
			h3.4v7.1c0,0.9,0.4,1,0.9,1h0.6v0.6H126.5z"/>
		<path class="st5" d="M136.1,71.7c-3.1,0-4.1-2.3-4.1-4.2c0-2.5,1.4-5.1,4-5.1c2.3,0,3.5,2,3.5,4.5l-0.2,0.3h-5.5
			c0,2.3,0.9,3.8,2.7,3.8c1.9,0,2.6-1.5,2.5-2.7h0.7C139.7,69.9,138.7,71.7,136.1,71.7z M136,63.2c-1.2,0-2.1,1.3-2.3,3.3h4
			C137.9,65.1,137.4,63.2,136,63.2z"/>
		<path class="st5" d="M140.1,71.4v-0.6h0.8c0.5,0,0.9-0.2,0.9-1v-9.8c0-0.9-0.4-1-0.9-1h-0.8v-0.6h3.4v11.5c0,0.9,0.4,1,0.9,1h0.8
			v0.6H140.1z"/>
		<path class="st5" d="M153.7,71.4c-0.6,0-1.1-0.6-1.1-1.3c-0.4,0.7-1.3,1.4-2.5,1.4c-2.3,0-3.8-2-3.8-4.5c0-1.8,1.3-4.7,4.1-4.7
			c0.8,0,1.6,0.4,2.1,1.1v-3.6c0-0.9-0.4-1-0.9-1h-1.8v-0.6h4.4v11.4c0,0.9,0.4,1.1,0.9,1.1h0.8v0.6H153.7z M150.3,63.2
			c-1.3,0-2.3,1.7-2.3,3.7c0,2.7,1,3.9,2.2,3.9c1.5,0,2.3-1.3,2.3-3.5C152.5,65.4,152,63.2,150.3,63.2z"/>
		<path class="st5" d="M158.2,71.6c-0.7,0-1.2-0.6-1.2-1.2c0-0.7,0.5-1.2,1.2-1.2c0.7,0,1.2,0.6,1.2,1.2
			C159.4,71,158.8,71.6,158.2,71.6z"/>
	</g>
</g>
<g>
	<path class="st5" d="M64.1,48.1c0,0.1,0,0.3,0.4,0.4c1,0.2,2.2-0.7,2.9-1.9c0,0,1,1.6,1.3,2.1c0.8-1.1,1-2.1,1-2.5
		c0-0.7-0.3-1.2-1.5-1.2c-1.2,0-2.5,0.6-3.3,1.5C64.3,47,64,47.6,64.1,48.1z"/>
	<path class="st5" d="M64.7,49l1.7,2c0.7-0.6,1.5-1.4,1.9-2c-0.2-0.3-0.7-1.1-1-1.5C66.6,48.5,65.6,49,64.7,49z"/>
	<path class="st5" d="M6.8,46.6c0.7,1.2,1.8,2,2.8,1.8C10,48.3,10,48.1,10,48c0-0.5-0.2-1-0.7-1.6c-0.9-1-2.1-1.6-3.3-1.6
		c-1.2,0-1.6,0.7-1.6,1.3c0,0.4,0.2,1.3,1,2.5C5.8,48.1,6.8,46.6,6.8,46.6z"/>
	<path class="st5" d="M6.8,47.5c-0.3,0.4-0.8,1.3-1,1.5c0.4,0.5,1.2,1.3,1.9,2l1.7-2C8.6,49,7.5,48.5,6.8,47.5z"/>
	<g>
		<path class="st5" d="M35.2,68.6c-0.4,0-0.9,0.4-0.9,1.5c-0.1,1.2,0.3,1.5,0.7,1.5c0.5,0,0.8-0.5,0.9-1.4
			C35.9,69.1,35.6,68.6,35.2,68.6z"/>
		<path class="st5" d="M24.5,65.8c-0.4-0.2-0.8,0-1,1.1c-0.2,1.1,0.1,1.6,0.5,1.7c0.5,0.2,0.8-0.2,1-1
			C25.1,66.6,24.9,65.9,24.5,65.8z"/>
		<path class="st5" d="M55.3,65.5c-0.6-1.4-1.1-2.9-1.4-4.8c-1.7,2.9-8.8,6.8-16.8,6.8c-8,0-15.1-3.9-16.8-6.8
			c-0.3,1.9-0.8,3.4-1.4,4.8c-0.2,0.4-0.3,1,1,2.1c2.9,2.5,8.9,5.2,17.2,5.2c8.3,0,14.3-2.6,17.2-5.2C55.6,66.5,55.5,65.9,55.3,65.5
			z M21.7,64c-0.4-0.3-0.7,0.1-0.9,1c-0.2,0.9,0,1.6,0.4,1.9c0.4,0.3,0.7,0.3,0.9-0.4l0.2,0.1c-0.2,0.8-0.7,0.9-1.2,0.5
			c-0.8-0.6-1-1.8-0.9-2.6c0.2-0.9,0.8-1.3,1.5-0.8c0.3,0.2,0.4,0.5,0.6,0.9l0.2-0.2l0.1,0.1l-0.3,1.4l-0.2-0.1
			C22.2,64.9,22.1,64.3,21.7,64z M25.6,67.8c-0.2,0.9-0.9,1.4-1.8,1c-0.9-0.4-1.2-1.5-1.1-2.3c0.2-0.8,0.8-1.5,1.7-1.1
			C25.6,66,25.8,67.1,25.6,67.8z M29.3,69.3l-0.2-0.1c-0.1,0-0.2,0-0.3,0.2l-0.3,1.2l-0.2,0l-0.1-0.5c-0.2,0.2-0.5,0.4-1,0.2
			c-0.9-0.3-1.3-1.2-1.1-2.2c0.2-0.9,1-1.5,1.8-1.2c0.4,0.1,0.6,0.4,0.8,0.6l0.2-0.3l0.1,0l-0.3,1.4l-0.2-0.1c0.1-0.6,0-1.2-0.6-1.4
			c-0.3-0.1-0.9,0-1.1,1.2c-0.2,0.9,0.1,1.5,0.6,1.7c0.4,0.1,0.5,0,0.6-0.2l0.1-0.5c0-0.2,0-0.3-0.2-0.4l-0.3-0.1l0-0.2l1.5,0.5
			L29.3,69.3z M33.2,68.5l-0.3,0c-0.1,0-0.2,0-0.3,0.2l-0.4,2.9L32,71.5l-1.4-2.8l-0.3,1.9c0,0.2,0.1,0.3,0.2,0.4l0.3,0.1l0,0.2
			L29.4,71l0-0.2l0.3,0.1c0.1,0,0.2,0,0.3-0.3l0.4-2.3c0-0.2-0.1-0.3-0.2-0.3l-0.3-0.1l0-0.2l1,0.2l1.3,2.6l0.2-1.8
			c0-0.2-0.1-0.3-0.2-0.3l-0.3-0.1l0-0.2l1.3,0.2L33.2,68.5z M36.6,70.2c-0.1,0.9-0.7,1.8-1.7,1.7c-1-0.1-1.5-1.1-1.4-1.9
			c0.1-0.9,0.7-1.8,1.7-1.7C36.3,68.4,36.7,69.5,36.6,70.2z M38.7,71.9c-0.5,0-0.7-0.2-0.9-0.4l-0.2,0.4l-0.1,0l0-1.5l0.2,0
			c0.1,0.7,0.3,1.3,1,1.2c0.3,0,0.5-0.2,0.5-0.5c0-1-1.8-0.3-1.8-1.8c0-0.3,0.3-1,1.1-1c0.4,0,0.7,0.1,0.8,0.3l0.2-0.4l0.1,0l0,1.4
			l-0.2,0c-0.1-0.7-0.3-1.1-0.9-1.1c-0.4,0-0.6,0.3-0.6,0.5c0,0.8,1.8,0.3,1.8,1.7C39.7,71.3,39.3,71.9,38.7,71.9z M42.2,71.5
			c-1,0.2-1.6-0.6-1.7-1.5c-0.1-0.9,0.5-2,1.4-2.1c0.4,0,0.6,0,0.9,0.2l0.1-0.4l0.2,0l0.1,1.5l-0.2,0c-0.1-0.7-0.4-1.1-1-1
			c-0.5,0.1-0.8,0.8-0.7,1.7c0.1,0.9,0.4,1.4,0.9,1.3c0.6-0.1,0.9-0.5,0.9-1.2l0.2,0C43.4,70.9,42.9,71.4,42.2,71.5z M44,71.2l0-0.2
			l0.3-0.1c0.1,0,0.2-0.1,0.2-0.4l-0.2-2.4c0-0.2-0.1-0.3-0.2-0.2L43.8,68l0-0.2c1.1-0.3,2.1-0.6,2.8-0.8l0.1,1.3l-0.2,0.1
			c-0.1-0.9-0.4-0.9-0.8-0.8c-0.2,0.1-0.4,0.1-0.5,0.2c-0.1,0-0.2,0.1-0.2,0.3l0.1,1l0.1,0c0.5-0.1,0.6-0.2,0.6-1l0.2-0.1l0.1,1.9
			l-0.2,0.1c-0.1-0.8-0.2-0.8-0.7-0.6l-0.1,0l0.1,1.2c0,0.2,0.1,0.2,0.2,0.2c0.2-0.1,0.3-0.1,0.7-0.2c0.5-0.1,0.6-0.4,0.6-1.3
			l0.2-0.1l0.1,1.3C45.9,70.7,45.1,70.9,44,71.2z M50.3,68.9c-0.3,0.2-0.7,0.1-0.7-0.3c-0.1-0.7-0.2-0.9-0.6-0.8L48.7,68l0.1,1.2
			c0,0.2,0.1,0.2,0.2,0.2l0.4-0.2l0,0.2c-0.5,0.3-1.2,0.5-1.7,0.7l0-0.2l0.3-0.1c0.1-0.1,0.2-0.1,0.2-0.4l-0.3-2.3
			c0-0.2-0.1-0.2-0.2-0.2L47.3,67l0-0.2l2-0.9c0.5-0.2,1,0,1,0.4c0,0.3-0.1,0.8-0.5,1c0.4,0.1,0.5,0.3,0.6,1c0,0.2,0.1,0.2,0.2,0.2
			c0.1,0,0.1-0.1,0.1-0.3l-0.1-0.7l0.2-0.1l0.1,0.7C50.9,68.4,50.8,68.7,50.3,68.9z M51.5,68.3l0-0.2l0.3-0.2
			c0.1-0.1,0.2-0.2,0.1-0.4l-0.4-2.2c0-0.2-0.1-0.3-0.2-0.2l-0.3,0.2l-0.1-0.2c0.6-0.4,1.6-1.2,2.3-1.7l0.3,1.1l-0.2,0.1
			c-0.2-0.8-0.5-0.7-0.8-0.5c-0.2,0.1-0.3,0.2-0.4,0.3c-0.1,0.1-0.1,0.2-0.1,0.3l0.2,1l0.1-0.1c0.4-0.3,0.4-0.4,0.3-1.1l0.2-0.1
			l0.4,1.7L53,66.3c-0.2-0.7-0.2-0.7-0.6-0.4L52.2,66l0.2,1.1c0,0.2,0.1,0.1,0.2,0.1c0.1-0.1,0.5-0.3,0.6-0.5
			c0.3-0.3,0.4-0.6,0.3-1.4l0.2-0.1l0.3,1.2C53.3,67,52.3,67.8,51.5,68.3z"/>
		<path class="st5" d="M48.8,66.3l-0.2,0.1c-0.1,0-0.1,0.1-0.1,0.2l0.1,1.1l0.3-0.1c0.5-0.2,0.6-0.7,0.6-0.9
			C49.5,66.1,49.1,66.2,48.8,66.3z"/>
	</g>
	<polygon class="st5" points="59.4,58.9 60,58.7 59.4,57.7 	"/>
	<path class="st5" d="M10.4,55.1L10.2,55c-0.1-0.1-0.1,0-0.2,0.1l-0.5,1l0.3,0.2c0.5,0.3,0.8,0,0.9-0.2
		C10.9,55.5,10.6,55.2,10.4,55.1z"/>
	<path class="st5" d="M5.1,51.9c0.2-0.5,0-0.8-0.2-1.1l-0.1-0.2c-0.1-0.1-0.1-0.1-0.1,0l-0.5,0.9l0.2,0.3C4.7,52.3,5,52.1,5.1,51.9z
		"/>
	<polygon class="st5" points="67.2,55 67.7,54.6 67.1,53.8 	"/>
	<path class="st5" d="M72,50.8c-0.5-0.6-1.3-1.8-1.9-3.7c-1.4,3.5-6.5,8.3-16.6,9.6c6.9-6.4,11.4-15.4,11.4-28.3V5.1
		c-6.8-1.7-17.7-3.5-27.8-3.5s-21,1.7-27.8,3.5v23.3c0,13,4.6,21.9,11.5,28.3c-10.1-1.3-15.3-6.1-16.7-9.6c-0.6,1.9-1.3,3-1.8,3.5
		c-0.8,0.9-0.9,1.8,0.1,3c1.9,2.6,6.5,7,17.1,8.4c0.2-0.8,0.4-1.6,0.5-2.6c0-0.8,0.6-1.1,1.4-1.1c0.4,0,0.9,0.1,1.5,0.2
		c0.3,0.2,0.6,0.5,0.9,0.7c-0.8-0.2-1.6-0.4-2.2-0.4c-0.7,0-0.9,0.2-0.9,0.6c0,1.8,3.5,4.1,5.6,5c0.5-0.9,0.9-1.8,1.2-2.7
		c3.1,2,6.4,3.7,9.8,5.1c3.4-1.4,6.7-3.1,9.8-5.1c0.3,0.9,0.8,1.8,1.2,2.6c2.1-0.9,5.4-3.1,5.4-4.9c0-0.4-0.2-0.6-0.9-0.6
		c-0.6,0-1.3,0.1-2,0.3c0.3-0.2,0.6-0.5,0.9-0.7c0.5-0.1,1-0.2,1.3-0.2c0.8,0,1.4,0.3,1.4,1.1c0.1,1,0.3,1.9,0.5,2.7
		c10.6-1.5,15.4-5.9,17.1-8.4C72.7,52.5,72.8,51.6,72,50.8z M4.3,54.4c-0.2-0.3-0.3-0.7-0.2-1.1c0.3-0.6,0.3-0.9,0.1-1.3L4,51.8
		l-0.5,0.9c-0.1,0.2,0,0.2,0,0.3l0.2,0.3l-0.1,0.2l-1.1-1.4l0.1-0.2l0.2,0.2c0.1,0.1,0.2,0.1,0.2-0.1l1-1.9c0.1-0.2,0-0.3,0-0.4
		l-0.2-0.2L4,49.4L5.3,51c0.3,0.4,0.4,1.1,0.2,1.5c-0.1,0.3-0.4,0.3-0.7,0.1c0.1,0.5,0.1,0.7-0.2,1.3c-0.1,0.2-0.1,0.3,0,0.3
		c0.1,0.1,0.1,0.1,0.2,0L5,53.7l0.2,0.2l-0.3,0.6C4.8,54.7,4.6,54.7,4.3,54.4z M4.9,55L5,54.8L5.2,55c0.1,0.1,0.2,0.1,0.3-0.1l1.1-2
		c0.1-0.2,0.1-0.3,0-0.4l-0.2-0.2l0.1-0.2l2.2,1.8L8,55l-0.1-0.1c0.3-0.8,0.2-1.1-0.1-1.4l-0.4-0.3c-0.1-0.1-0.2-0.1-0.2,0.1
		l-0.5,0.9l0.1,0.1c0.4,0.3,0.4,0.3,0.8-0.3L7.7,54l-0.8,1.6l-0.1-0.1c0.3-0.7,0.3-0.7-0.1-1.1l-0.1-0.1l-0.5,1
		c-0.1,0.2,0,0.2,0,0.3l0.5,0.4c0.3,0.3,0.6,0.2,1-0.5l0.1,0.1l-0.6,1.1L4.9,55z M11.3,56.4c-0.1,0.3-0.5,0.4-0.9,0.4
		c0.2,0.4,0.2,0.6-0.1,1.3c-0.1,0.2,0,0.3,0,0.3c0.1,0,0.2,0,0.2-0.1l0.3-0.6l0.2,0.1l-0.3,0.6c-0.1,0.2-0.4,0.4-0.8,0.1
		c-0.3-0.2-0.5-0.5-0.3-0.9c0.3-0.6,0.3-0.9,0-1.2l-0.3-0.2l-0.5,1.1c-0.1,0.2,0,0.2,0.1,0.3l0.3,0.2L9.2,58l-1.6-0.9l0.1-0.2
		L8,57.1c0.1,0.1,0.2,0.1,0.3-0.1l1-2.1c0.1-0.2,0-0.3-0.1-0.4L9,54.3L9,54.1l1.8,1C11.3,55.4,11.5,55.9,11.3,56.4z M12.1,59.4
		l0.1-3.1c0-0.2,0-0.3-0.2-0.4l-0.2-0.1l0.1-0.2l1.6,0.6l-0.1,0.2l-0.2-0.1c-0.1,0-0.3,0-0.3,0.2l-0.1,2.1l1.2-1.7
		c0.1-0.2,0.1-0.3-0.1-0.3l-0.2-0.1l0.1-0.2l1.1,0.4l-0.1,0.2l-0.2-0.1c-0.1-0.1-0.2,0-0.4,0.2l-1.9,2.4L12.1,59.4z M19.2,57.9
		l-0.3,0c-0.1,0-0.2,0-0.3,0.2l-0.7,2.3c-0.1,0.2,0,0.3,0.1,0.3l0.3,0.1L18.2,61l-1.7-0.3l0.1-0.2l0.3,0.1c0.2,0,0.2,0,0.3-0.2
		l0.6-2L16,60.6l-0.3-0.1l-0.1-2.7L15,59.8c-0.1,0.2,0,0.3,0.1,0.3l0.3,0.1l-0.1,0.2L14,60.1l0.1-0.2l0.3,0.1c0.1,0,0.2,0,0.3-0.2
		l0.8-2.3c0.1-0.2,0-0.3-0.1-0.3L15,57l0.1-0.2l1.3,0.3l0,2.4l1.6-2.1l1.2,0.2L19.2,57.9z M37.1,65.1c-14.4-6-26.7-16.3-26.7-37.2
		V6.1c5.5-1.4,17.4-3.5,26.7-3.5s21.2,2,26.7,3.5v21.8C63.8,48.8,51.5,59,37.1,65.1z M57.5,60.8c-1,0.2-1.7-0.6-1.9-1.4
		c-0.2-0.9,0.2-1.9,1-2.1c0.4-0.1,0.6,0,0.9,0.2l0-0.4l0.1,0l0.4,1.4l-0.2,0c-0.2-0.7-0.6-1.1-1.2-1c-0.5,0.1-0.6,0.8-0.4,1.7
		c0.2,0.9,0.7,1.3,1.2,1.2c0.5-0.1,0.8-0.5,0.7-1.2l0.2-0.1C58.6,60.1,58.3,60.6,57.5,60.8z M60.2,60l-0.1-0.2l0.3-0.1
		c0.1,0,0.3-0.1,0.1-0.3l-0.3-0.5l-0.8,0.3l0,0.6c0,0.2,0.1,0.3,0.3,0.2l0.2-0.1l0.1,0.2l-1.2,0.4l-0.1-0.2l0.2-0.1
		c0.2,0,0.2-0.1,0.2-0.4l0-3.1l0.3-0.1l1.8,2.5c0.1,0.2,0.2,0.2,0.3,0.2l0.3-0.1l0.1,0.2L60.2,60z M63.4,55.3
		c-0.1,0.1-0.2,0.2-0.2,0.4l0,3.2L62.9,59l-1.8-2.4c-0.1-0.2-0.2-0.2-0.3-0.2l-0.2,0.1l-0.1-0.2l1.6-0.7l0.1,0.2l-0.2,0.1
		c-0.1,0-0.2,0.2-0.1,0.4l1.2,1.6l0-2.1c0-0.2-0.1-0.3-0.3-0.2l-0.2,0.1l-0.1-0.2l1.1-0.5l0.1,0.2L63.4,55.3z M65.8,57.6
		c-0.4,0.3-0.7,0.2-0.9,0l0,0.4l-0.1,0.1l-0.4-1.4l0.2-0.1c0.3,0.6,0.6,1,1.2,0.7c0.2-0.1,0.4-0.4,0.3-0.7c-0.3-1-1.6,0.6-2-0.9
		c-0.1-0.3,0-1,0.6-1.4c0.4-0.2,0.6-0.2,0.8-0.1l0-0.4l0.1-0.1l0.4,1.3l-0.2,0.1c-0.3-0.7-0.6-0.9-1.1-0.6c-0.3,0.2-0.4,0.6-0.3,0.8
		c0.2,0.8,1.6-0.6,2,0.7C66.5,56.6,66.3,57.2,65.8,57.6z M67.9,55.9l-0.1-0.2l0.2-0.2c0.1-0.1,0.2-0.2,0.1-0.4l-0.3-0.4l-0.7,0.5
		l0,0.6c0,0.2,0.1,0.2,0.2,0.1l0.2-0.1l0.1,0.2l-0.9,0.8l-0.1-0.2l0.2-0.1c0.1-0.1,0.2-0.2,0.1-0.5l-0.2-3.3l0.3-0.2l1.7,2.1
		c0.1,0.2,0.2,0.2,0.3,0.1l0.2-0.2l0.1,0.2L67.9,55.9z M70.2,53.7c-0.3,0.4-0.5,0.4-0.7,0.3l0,0.5l-0.1,0.1L69,53.3l0.1-0.2
		c0.3,0.6,0.7,0.9,1.1,0.4c0.2-0.2,0.2-0.6,0.1-0.8c-0.4-0.9-1.2,1.1-1.7-0.3c-0.1-0.3-0.2-1.1,0.3-1.7c0.2-0.3,0.4-0.4,0.6-0.3
		l0-0.5l0.1-0.1l0.5,1.3l-0.1,0.2c-0.3-0.6-0.6-0.8-0.9-0.4c-0.2,0.3-0.2,0.7-0.1,0.9c0.3,0.8,1.2-1.1,1.7,0.2
		C70.7,52.5,70.6,53.2,70.2,53.7z"/>
	<g>
		<g>
			<path class="st5" d="M41.4,59.1c-0.1,0-0.2-0.1-0.3-0.2c0,0.1,0,0.2,0,0.3c0.3,0.4,0.9,1,1,1.2c0.1,0.2,0.3,0.1,0.1-0.1
				C42.1,60.1,41.7,59.5,41.4,59.1z"/>
			<path class="st5" d="M33.2,58.6c-0.1,0.1-0.3,0.2-0.4,0.3c-0.3,0.5-0.8,1.2-0.9,1.3c-0.1,0.2-0.1,0.3,0.1,0.1
				c0.1-0.2,0.7-0.9,1.1-1.3C33.1,58.8,33.1,58.7,33.2,58.6z"/>
			<path class="st5" d="M29,50.6c0.2,0.1,0.8,0.3,1.3,0.4c0.1,0,0.3,0,0.4,0c-0.1-0.1-0.2-0.2-0.2-0.3c-0.5-0.1-1.3-0.3-1.4-0.3
				C28.9,50.4,28.8,50.5,29,50.6z"/>
			<path class="st5" d="M36.9,46.5c0.1,0.1,0.1,0.2,0.2,0.3c0-0.1,0.1-0.2,0.1-0.2c0-0.5-0.1-1.4-0.1-1.6c0-0.2-0.1-0.3-0.1,0
				C37,45.2,36.9,46,36.9,46.5z"/>
			<path class="st5" d="M42.9,51.4c0.2,0,0.4,0,0.6,0c0.6-0.3,1.2-0.6,1.3-0.6c0.2-0.1,0.2-0.2,0-0.1c-0.2,0.1-0.8,0.3-1.5,0.5
				C43.2,51.2,43.1,51.3,42.9,51.4z"/>
			<path class="st5" d="M46.3,50.3c0.1-0.1,0.1-0.1-0.1-0.1c-0.2,0-0.6,0-0.7,0c-0.1,0-0.1,0-0.1-0.1c0-0.2,0-0.2-0.1-0.2
				c-0.2,0.1-0.5,0.3-0.7,0.4c0.1-0.1,0.2-0.3,0.2-0.4c0.1-0.2,0-0.2-0.1-0.1c-0.1,0-0.5,0.2-0.9,0.3c-0.2-1.6-2.2-3.9-5.3-3.9
				c-0.2,0-0.3,0-0.4,0c0-0.3,0-1,0-1.1c0-0.1-0.1-0.1-0.1-0.1c-0.1,0-0.2,0.1-0.3,0.2c0-0.2,0-0.5,0-0.6c0-0.2,0-0.2-0.1-0.1
				c-0.1,0-0.1,0-0.1-0.1c0-0.1-0.2-0.7-0.3-0.8c0-0.1-0.1-0.1-0.2,0c-0.1,0.1-0.2,0.6-0.3,0.7c-0.1,0.2-0.1,0.1-0.2,0.1
				c-0.1-0.1-0.2-0.1-0.2,0c0,0.2,0.1,0.6,0.2,0.8c-0.1-0.1-0.2-0.3-0.3-0.4C36,44.8,36,44.9,36,45c0,0.1,0,0.5,0,0.8
				c0,0-0.1,0-0.1,0c-2.1,0-5.3,1.7-5.6,4c-0.3-0.1-1-0.3-1.1-0.3c-0.1,0-0.2,0-0.1,0.1c0,0.1,0,0.2,0.1,0.3c-0.1,0-0.6-0.2-0.7-0.2
				c-0.1,0-0.1,0,0,0.2c0.1,0.1,0.1,0.1-0.1,0.1c-0.1,0-0.7,0-0.8,0c-0.1,0-0.1,0.1,0,0.2c0.1,0.1,0.4,0.4,0.5,0.5
				c0.1,0.1,0.1,0.1,0,0.1c-0.1,0.1-0.1,0.1,0,0.2c0.2,0,0.6,0.1,0.8,0.2c-0.1,0.1-0.3,0.1-0.4,0.2c-0.1,0.1-0.1,0.1,0,0.2
				c0.1,0,0.4,0.1,0.7,0.2C29,52.2,28.9,53,28.9,54c0,2.7,1,4.6,2.6,5c-0.2,0.3-0.5,0.7-0.5,0.7c-0.1,0.1,0,0.2,0.1,0.2
				c0.1,0,0.2,0,0.4,0c-0.1,0.1-0.6,0.6-0.7,0.7c-0.1,0.1,0.2,0,0.3,0c0.1,0,0.1,0,0,0.1c0,0.1-0.2,0.6-0.2,0.7c0,0.1,0,0.2,0.2,0.1
				c0.1-0.1,0.6-0.4,0.7-0.5c0.1-0.1,0.1-0.1,0.2,0.2c0,0.1,0.1,0.2,0.2,0.1c0.1-0.2,0.4-0.9,0.5-1.2c0,0.1,0,0.3,0,0.5
				c0,0.1,0.1,0.1,0.2,0c0-0.1,0.2-0.3,0.4-0.5c0.6,1,2.3,1.6,4,1.6c2.3,0,3.3-0.6,3.7-1.2c0.2,0.2,0.4,0.5,0.4,0.6
				c0.1,0.1,0.1,0.1,0.2,0c0-0.1,0.1-0.2,0.1-0.3c0.1,0.1,0.3,0.4,0.4,0.5c0.1,0.1,0.1,0.1,0.2,0c0-0.1,0-0.1,0.2-0.1
				c0.1,0.1,0.5,0.3,0.6,0.4c0.1,0.1,0.2,0,0.2-0.1c0-0.2-0.1-0.6-0.1-0.7c0-0.1,0-0.1,0.1-0.1c0.3,0,0.2-0.1,0.1-0.2
				c-0.1-0.1-0.4-0.4-0.6-0.6c0.1,0.1,0.3,0.1,0.5,0.1c0.2,0,0.2,0,0.1-0.2c-0.1-0.1-0.4-0.4-0.6-0.7c1.3-0.5,2.8-2.6,2.8-5.3
				c0-0.9-0.4-1.6-0.8-2c0.3-0.1,0.7-0.2,0.8-0.2c0.1,0,0.2-0.1,0-0.2c-0.1-0.1-0.2-0.1-0.3-0.2c0.1,0,0.5-0.2,0.6-0.2
				c0.1,0,0-0.1-0.1-0.2c-0.1-0.1-0.1-0.1,0-0.1C45.7,50.7,46.2,50.4,46.3,50.3z M44.8,53.6c0,3-1.7,5.3-2.8,5.3
				c-1,0-1.8-1.3-2.4-2.4c-0.2-0.3-0.5-0.1-0.3,0.2c0.2,0.4,1.5,1.7,1.5,2.6c0,1.4-1.2,1.9-3.5,1.9c-2.8,0-3.9-1.2-3.9-2
				c0-0.7,0.8-1.8,1.5-2.5c0.3-0.3-0.1-0.6-0.3-0.2c-0.2,0.4-1.2,2.3-2.3,2.3c-2.1,0-2.9-3-2.9-5.3c0-1.3,0.4-2,1.3-2
				c0.4,0,1.4,0.6,2.9,1c0.4,0.1,0.7-0.4,0.1-0.4c-1.4-0.2-3-0.8-3-1.8c0-2.2,3.9-4.1,5.2-4.1c1.2,0,1.3,1.8,1.2,4
				c0,0.4,0.5,0.4,0.4,0c-0.1-0.5-0.1-2-0.2-2.6c-0.1-0.5,0.3-1.2,1.2-1.2c2.3,0,4.9,2.4,4.9,3.7c0,0.8-1.4,1.6-3.1,1.9
				c-0.5,0.1-0.2,0.6,0.2,0.4c0.5-0.3,1.8-0.8,2.6-0.8C43.9,51.7,44.8,52.3,44.8,53.6z"/>
		</g>
		<g>
			<path class="st5" d="M37.8,50c0-0.2-0.1-1.4-0.1-1.7c0-0.9,0.3-1.4,0.9-1.4c0.7,0,1.3,1.1,2,1.1c0.2,0,0.3-0.1,0.4-0.2
				c0.1-0.1,0.2,0,0.2,0.1c0,0.1,0,0.3,0,0.4c0,0.9,1.7,0.8,1.7,1.7c0,1.1-1.9,1.6-2.5,1.6c-0.3,0-0.2-0.1-0.1-0.1
				c1.1,0,2.3-0.8,2.3-1.4c0-0.8-2.1-0.7-1.6-2.1c-1,0.7-1.6-0.9-2.4-0.9c-0.4,0-0.7,0.3-0.7,1.1c0,0.3,0,1.5,0.1,1.8
				C38,50.2,37.8,50.2,37.8,50z"/>
			<path class="st5" d="M33.9,51.5c-0.3-0.2-1.4-0.3-1.7-0.4c-1-0.3-1.1-0.9-1-1.3c0.2-0.6,1.5-0.9,1.7-1.6c0.1-0.2,0-0.3-0.1-0.4
				c-0.1-0.1,0-0.2,0.1-0.2c0.1,0,0.3,0.2,0.4,0.2c0.8,0.3,1.4-1.4,2.2-1.1c1.2,0.4,0.6,2.6,0.6,3.1c0,0.2-0.1,0.3-0.2,0
				c0-0.5,0.5-2.6-0.5-2.9c-0.8-0.2-1.2,1.8-2.5,0.9c0.3,1.1-1.3,1.3-1.5,2c-0.1,0.4,0.2,0.8,0.8,1.1C32.6,51,33.8,51.3,33.9,51.5
				C34.1,51.5,34.2,51.6,33.9,51.5z"/>
			<path class="st5" d="M34.1,55.8C34,56,33.5,57,33.3,57.3c-0.5,0.7-1.3,0.8-1.8,0.5c-0.5-0.3-0.5-1.7-0.9-2.1
				c-0.1-0.1-0.3-0.1-0.5-0.1c-0.1,0-0.2-0.1-0.1-0.2c0.1-0.1,0.3-0.2,0.3-0.3c0.4-0.8-0.9-1.7-0.3-2.5c0.6-0.8,2.5,0,3.2,0.5
				c0.2,0.1,0.2,0.3,0,0.2c-1-0.7-2.5-1.1-3-0.5c-0.5,0.7,1.2,1.8,0,2.7c1.1,0,0.8,1.6,1.4,2.1c0.3,0.2,1,0.2,1.4-0.3
				c0.2-0.2,0.8-1.4,0.9-1.6C34.1,55.5,34.3,55.5,34.1,55.8z"/>
			<path class="st5" d="M38.7,57.1c0.1,0.2,0.8,1,1,1.2c0.6,0.6,0.6,1.3,0.2,1.7c-0.5,0.5-1.8-0.1-2.3,0.3c-0.1,0.1-0.2,0.3-0.2,0.4
				c0,0.2-0.2,0.1-0.2,0.1c0-0.1-0.2-0.3-0.2-0.4c-0.5-0.7-1.9,0.1-2.5-0.5c-0.7-0.8,0.3-2.2,0.9-2.6c0.2-0.1,0.3-0.1,0.2,0.1
				c-0.9,0.8-1.2,1.9-0.9,2.4c0.5,0.7,2.3-0.5,2.7,0.9c0.4-1.2,1.8-0.3,2.4-0.8c0.3-0.2,0.3-0.8-0.1-1.3c-0.2-0.2-0.9-1.2-1-1.3
				C38.4,57,38.6,56.9,38.7,57.1z"/>
			<path class="st5" d="M40.9,52.9c0.5-0.1,1.2-0.2,1.5-0.4c0.8-0.4,1.4-0.1,1.6,0.5c0.1,0.6-0.5,1.7-0.3,2.3c0,0.1,0.2,0.3,0.3,0.3
				c0.1,0,0.1,0.2,0,0.2c-0.1,0-0.3,0-0.5,0.1c-0.8,0.3-0.4,1.8-1.2,2.1c-1.1,0.4-2.1-1.3-2.2-1.9c-0.1-0.3,0-0.3,0.1-0.1
				c0.4,1.1,1.4,1.9,2,1.7c0.8-0.2,0.1-2,1.6-2c-0.9-0.7,0.2-1.9,0-2.6c-0.2-0.5-0.6-0.6-1.2-0.3c-0.6,0.2-1.3,0.3-1.6,0.3
				C40.6,53.1,40.5,53,40.9,52.9z"/>
		</g>
		<path class="st5" d="M42.7,55.3c-0.1-0.1-2.3-0.7-2.8-0.8c0.5,0.1,2.1-0.2,2.6-0.5c0.1-0.1,0.1-0.2-0.1-0.2
			c-0.3,0.1-1.6,0.5-2.5,0.5c0.1-0.3,0.1-0.5,0.1-0.8c0-0.7-0.3-1.4-0.8-1.9c-0.1-0.1-0.1-0.1-0.2-0.2c0.7-0.6,1.9-0.9,2.2-1
			c0.2,0,0.3-0.2,0-0.2c-0.3,0-1.7,0.4-2.3,1.1c0,0,0,0,0,0c0.4-0.5,1.4-2.1,1.6-2.3c0.2-0.2,0-0.3-0.1-0.2
			c-0.1,0.1-1.3,1.8-1.6,2.4c0,0,0,0,0,0c0.2-0.5,0.4-2.1,0.3-2.5c0-0.1-0.2-0.2-0.2,0c0,0.3-0.1,1.6-0.3,2.4
			c-0.4-0.2-1-0.3-1.6-0.3c-0.5,0-1,0.2-1.3,0.4c-0.4-0.9-0.4-2.3-0.3-2.6c0-0.2-0.1-0.3-0.2-0.1c-0.1,0.3-0.1,1.9,0.4,2.7
			c-0.3-0.4-1.6-2.1-1.8-2.3c-0.1-0.3-0.3-0.1-0.2,0.1c0,0.2,1.4,1.9,1.8,2.3c-0.4-0.4-1.9-1.1-2.3-1.1c-0.1,0-0.2,0.1-0.1,0.2
			c0.3,0.1,1.8,0.7,2.4,1.1c-0.2,0.2-0.4,0.3-0.5,0.5c-0.4,0.5-0.6,1.1-0.6,1.9c0,0.2,0,0.4,0.1,0.5c-1,0-2.3-0.6-2.6-0.8
			c-0.2-0.1-0.3,0-0.2,0.1c0.2,0.2,1.7,1,2.6,0.8c-0.4,0.1-2.5,0.5-2.9,0.5c-0.3,0-0.2,0.2-0.1,0.2c0.2,0,2.4-0.4,2.9-0.6
			c-0.5,0.2-1.8,1.2-2.1,1.6c-0.1,0.1,0,0.3,0.1,0.1c0.2-0.2,1.5-1.4,2.2-1.7c0.2,0.6,0.6,1.1,1.3,1.4c0.3,0.2,0.8,0.3,1.3,0.4
			c-0.2,1-1,2.2-1.3,2.4c-0.2,0.2-0.1,0.4,0.1,0.2c0.2-0.2,1.2-1.5,1.2-2.4c0,0.4,0.1,2.6,0.1,2.9c-0.1,0.3,0.2,0.3,0.2,0.1
			c0.1-0.2,0-2.4-0.1-3c0.1,0.5,0.9,2,1.2,2.3c0.1,0.1,0.3,0,0.2-0.1c-0.3-0.5-1.1-1.5-1.3-2.4c0.7,0,1.8-0.4,2.2-1.2
			c0.1-0.2,0.2-0.4,0.3-0.6c0.8,0.5,1.6,1.6,1.7,1.9c0.1,0.2,0.3,0.2,0.2,0c-0.1-0.3-1-1.6-1.9-1.9c0.4,0.1,2.5,0.7,2.8,0.8
			C42.8,55.6,42.9,55.4,42.7,55.3z M39.1,52.4c0.2,0,0.4,0.2,0.4,0.3c0,0.2-0.1,0.4-0.3,0.4c-0.2,0-0.4-0.2-0.4-0.4
			C38.8,52.6,39,52.4,39.1,52.4z M38.2,51.4c0.2,0,0.4,0.2,0.4,0.3c0,0.2-0.1,0.4-0.3,0.4c-0.2,0-0.4-0.2-0.4-0.4
			C37.9,51.5,38.1,51.4,38.2,51.4z M37.9,52.4c0.3,0,0.4,0.3,0.4,0.4c0,0.2-0.2,0.4-0.3,0.4c-0.2,0-0.4-0.2-0.4-0.4
			C37.6,52.6,37.8,52.4,37.9,52.4z M37.1,51.1c0.2,0,0.4,0.2,0.4,0.3c0,0.2-0.1,0.4-0.3,0.4c-0.2,0-0.4-0.2-0.4-0.4
			C36.7,51.2,36.9,51.1,37.1,51.1z M37.5,53.5c0,0.2-0.2,0.4-0.4,0.4c-0.2,0-0.4-0.2-0.4-0.4c0-0.2,0.2-0.4,0.4-0.4
			C37.3,53.1,37.5,53.4,37.5,53.5z M36.8,52.1c0.3,0,0.4,0.2,0.4,0.4c0,0.2-0.2,0.4-0.3,0.4c-0.2,0-0.4-0.2-0.4-0.4
			C36.4,52.3,36.6,52.1,36.8,52.1z M35.7,51.4c0.2,0,0.4,0.2,0.4,0.3c0,0.2-0.1,0.4-0.3,0.4c-0.2,0-0.4-0.2-0.4-0.4
			C35.4,51.6,35.6,51.4,35.7,51.4z M36.3,53.3c0,0.2-0.2,0.4-0.4,0.4c-0.2,0-0.3-0.2-0.3-0.4c0-0.2,0.2-0.4,0.4-0.4
			C36.2,52.9,36.3,53.2,36.3,53.3z M35,52.4c0.2,0,0.4,0.2,0.4,0.3c0,0.2-0.2,0.4-0.4,0.4c-0.2,0-0.3-0.2-0.3-0.4
			C34.7,52.5,34.8,52.4,35,52.4z M34.9,54.6c-0.2,0-0.4-0.2-0.4-0.4c0-0.2,0.2-0.4,0.3-0.4c0.2,0,0.4,0.2,0.4,0.3
			C35.2,54.4,35.1,54.6,34.9,54.6z M35.6,55.7c-0.2,0-0.4-0.2-0.4-0.4c0-0.2,0.2-0.4,0.3-0.4c0.2,0,0.5,0.2,0.5,0.3
			C36,55.6,35.8,55.7,35.6,55.7z M36.2,54.8c-0.2,0-0.5-0.1-0.5-0.3c0-0.2,0.3-0.4,0.4-0.4c0.3,0,0.4,0.2,0.4,0.4
			C36.6,54.6,36.4,54.8,36.2,54.8z M36.9,56.1c-0.2,0-0.4-0.2-0.4-0.4c0-0.2,0.1-0.4,0.2-0.4c0.2,0,0.5,0.3,0.5,0.4
			C37.3,56,37.1,56.1,36.9,56.1z M37.4,55.2c-0.2,0-0.4-0.2-0.4-0.4c0-0.2,0.2-0.4,0.3-0.4c0.3,0,0.4,0.2,0.4,0.4
			C37.8,55,37.6,55.2,37.4,55.2z M37.8,54.1c0-0.2,0.2-0.4,0.3-0.4c0.3,0,0.4,0.2,0.4,0.4c0,0.2-0.2,0.4-0.3,0.4
			C38,54.5,37.8,54.3,37.8,54.1z M38.5,55.8c-0.2,0-0.4-0.1-0.4-0.3c0-0.2,0.2-0.5,0.4-0.5c0.2,0,0.5,0.2,0.5,0.3
			C38.9,55.5,38.7,55.8,38.5,55.8z M39.2,54.6c-0.2,0-0.3-0.2-0.3-0.4c0-0.2,0.2-0.4,0.3-0.4c0.2,0,0.4,0.2,0.4,0.3
			C39.6,54.4,39.4,54.6,39.2,54.6z"/>
	</g>
	<g>
		<path class="st5" d="M52.5,7.5c-0.8,0-1.1,0.3-1.4,0.6c0.2-0.5,0.5-0.9,0.9-1.3c-2.3-0.4-3.3,0.7-3.6,2.2
			c-0.2-0.5-0.4-1.2-1.6-1.1c0.1,0.4,0,0.9-0.2,1.2c-0.2-0.6-0.5-1-1.2-1c-0.9,0-1.7,0.8-1.7,1.6c0,0.8,0.5,1.2,1.5,1.2
			c-0.2,0.2-0.5,0.4-0.8,0.5c0.6,0.6,2,0.7,3.2,0.4c-1.3,1.6-4.3,1.3-5.1-0.6c-1.8,1.5-4.2,0.9-4.7-0.7c0.9,0.5,2.2,0.7,3.1,0.5
			c-0.2-0.1-0.5-0.4-0.5-0.5c1.3,0.3,2.3,0.1,2.3-1.5c0-1-0.7-1.5-1.3-1.5c-0.6,0-0.9,0.3-1.2,0.5c0-0.2,0.1-0.4,0.5-0.7
			C40.4,7,40,7,39.4,7.2c0.8-0.7,0.7-1.9-0.3-2.3c-0.2,0.6-0.3,0.9-0.6,0.9c0.6-1.5,0-2.4-1.4-2.4c-1.4,0-2,0.9-1.4,2.5
			c-0.3,0-0.4-0.4-0.5-0.9c-1.1,0.4-1.2,1.7-0.4,2.3C34.2,7,33.8,7,33.5,7.3C33.9,7.5,34,7.7,34,7.9c-0.4-0.3-0.8-0.4-1.2-0.4
			c-0.7,0-1.3,0.6-1.3,1.5c0,1.4,0.8,1.8,2.2,1.4c-0.1,0.1-0.2,0.4-0.4,0.5c1,0.2,2.2,0,3.2-0.5c-0.5,1.6-3.2,2.3-4.8,0.8
			c-0.7,1.8-3.6,2.3-5.1,0.5c1.2,0.4,2.6,0.3,3.2-0.3c-0.4-0.1-0.7-0.3-0.8-0.5c1.1,0.1,1.7-0.3,1.7-1C30.5,9,29.6,8,28.8,8
			c-0.6,0-0.9,0.5-1.2,1c-0.1-0.3-0.1-0.7,0-1.1c-1.2-0.1-1.5,0.8-1.7,1.2c-0.4-1.5-1.4-2.7-3.6-2.3c0.3,0.4,0.7,1,0.9,1.4
			c-0.4-0.4-0.8-0.7-1.5-0.7c-0.7,0-1.4,0.5-1.4,1.3c0,0.7,0.4,1.1,0.7,1.3c0.4-0.7,0.9-0.8,1.6-0.8c1.3,0,2.3,1.2,2.3,1.7
			c0,0.3,0.2,0.6,0.6,0.7c0.1,0.3,1.1,1.9,1.4,2.3c-0.2,0.5-0.2,1.2,0.2,1.9c0,0.1,0.1,0.8,0.1,0.9c-0.2,0.1-0.3,0.3-0.3,0.5
			c0,1.4,7.3,1.7,10.3,1.7c5.7,0,10.3-0.5,10.3-1.8c0-0.2-0.2-0.4-0.3-0.5c0-0.1,0.1-0.8,0.1-0.9c0.4-0.7,0.5-1.4,0.3-2
			c0.3-0.4,1-1.7,1.2-2c0.7,0.1,1.1-0.7,0.8-1.1c0.3-0.8,1-1.5,2.3-1.5c0.5,0,1.1,0.1,1.6,0.9c0.3-0.2,0.8-0.7,0.8-1.5
			C54.1,8.2,53.5,7.5,52.5,7.5z M20.8,9.6c-0.1-0.1-0.2-0.4-0.2-0.7c0-0.6,0.5-1.1,1.1-1.1c0.4,0,1,0.1,1.4,0.9
			C21.6,8.6,21.1,9.3,20.8,9.6z M23.4,8c-0.1-0.4-0.2-0.6-0.5-1c0.5,0,1.3,0.2,1.7,0.6C23.2,7.1,23.3,7.4,23.4,8z M24.8,9.9
			c-0.1-0.5-0.5-1.5-0.9-1.9c-0.1-0.1,0-0.1,0.1,0c0.4,0.3,0.9,1.4,1,2.1C25,10.1,24.8,10,24.8,9.9z M25.6,11.5
			c-0.4,0-0.6-0.3-0.6-0.5c0-0.2,0.1-0.6,0.3-0.4c0.2,0.1,0.5,0.5,0.6,0.7C26,11.5,25.9,11.5,25.6,11.5z M29.7,8.9
			c0.7,0.7,0.5,1.5-0.2,1.6c0.6-0.7,0.1-1.2-0.4-1.1c-0.2,0.1-0.3,0-0.2-0.1c0.3-0.5,0-0.9-0.7-0.7C28.7,8.2,29,8.2,29.7,8.9z
			 M26.4,10.7c0.1-0.1,1.9-0.9,2-0.9c0.1,0,0.1,0,0.1,0.1c-0.1,0.1-1.7,0.9-1.9,1C26.4,10.9,26.3,10.7,26.4,10.7z M40.9,13.5
			c0.1,0,0.2-0.1,0.2-0.1c0.5,0.1,1.3,0.2,1.7,0.2c0,0.1,0.1,0.1,0.2,0.2c0,0.1-0.1,0.4-0.1,0.6c-0.1,0-0.2,0.1-0.2,0.2
			c-0.4-0.1-1.3-0.2-1.7-0.2c-0.1-0.1-0.1-0.1-0.2-0.2C40.8,13.9,40.9,13.6,40.9,13.5z M42.3,8.9c0,1-0.5,1.3-1.2,1.3
			c0.7-0.3,0.9-1,0.3-1.1c-0.1,0-0.2-0.2,0-0.2c0.5-0.1,0.5-0.8-0.4-1C41.6,7.6,42.2,7.9,42.3,8.9z M40.8,8.9c0.1,0,0.2,0.1,0,0.1
			c-0.3,0-2.2,0-2.5,0.1c-0.2,0-0.3-0.2-0.1-0.3C38.4,8.9,40.5,8.9,40.8,8.9z M39.3,5.3c0.3,0.2,0.4,0.5,0.4,0.8
			c-0.2-0.5-0.4-0.5-0.8-0.3C39,5.7,39.2,5.5,39.3,5.3z M39.1,6.5c0-0.1,0.1,0,0.1,0.1c-0.1,0.3-0.9,1.4-1.3,1.6
			c-0.1,0.1-0.2-0.1-0.1-0.2C38,7.8,38.8,6.9,39.1,6.5z M34.5,6.1c0-0.3,0.2-0.7,0.4-0.8c0.1,0.2,0.2,0.4,0.4,0.6
			C34.8,5.6,34.7,5.6,34.5,6.1z M32.8,8.9c0.2,0.1,0.1,0.2,0,0.2c-0.6,0.1-0.3,0.7,0.3,1.1c-0.7,0-1.2-0.3-1.2-1.3
			c0-1,0.7-1.3,1.3-1.1C32.3,8.1,32.3,8.8,32.8,8.9z M36,9.2c-0.3,0-2.4-0.2-2.6-0.1c-0.2,0-0.2-0.1-0.1-0.1c0.3,0,2.4,0,2.6,0
			C36.1,8.9,36.1,9.2,36,9.2z M36.1,8.2c-0.3-0.2-1-1.1-1.2-1.6c-0.1-0.2,0-0.2,0.1-0.1c0.1,0.1,0.8,1.1,1.2,1.5
			C36.4,8.2,36.2,8.3,36.1,8.2z M35.7,4.8c0-0.6,0.4-1.1,1.4-1.1c1.1,0,1.4,0.6,1.3,1.2c-0.3-0.8-1.1-0.8-1.2-0.3
			c-0.1,0.2-0.2,0.1-0.2,0C36.8,4,36.1,4.2,35.7,4.8z M37.1,8.5c0.3,0,0.5,0.3,0.5,0.6c0,0.5-0.2,0.7-0.5,0.7
			c-0.3,0-0.5-0.4-0.5-0.7C36.6,8.8,36.8,8.5,37.1,8.5z M37,7.9C37,7.6,37,5.3,37,5.2c0-0.2,0.2-0.2,0.2,0c0,0.3,0.1,2.6,0.1,2.8
			C37.3,8,37,8,37,7.9z M35.8,13.3c0.3-0.2,0.9-0.6,1.1-0.9c0,0,0.2,0,0.2,0c0.2,0.2,0.9,0.8,1.1,0.9c0.1,0,0,0.2,0,0.2
			c-0.2,0.1-1,0.6-1.1,0.8c0,0-0.2,0-0.2,0c-0.3-0.3-0.8-0.7-1.1-0.9C35.7,13.4,35.7,13.3,35.8,13.3z M31,13.6
			c0.5-0.1,1.3-0.2,1.7-0.2c0.1,0.1,0.2,0.1,0.2,0.1c0.1,0.2,0.1,0.5,0.1,0.7c-0.1,0-0.1,0.1-0.2,0.2c-0.4,0-1.3,0.1-1.7,0.2
			c-0.1-0.1-0.1-0.1-0.2-0.2c0-0.2-0.1-0.5-0.1-0.6C31,13.7,31,13.7,31,13.6z M27.3,15.7c-0.3-0.4-0.4-1-0.2-1.4
			c0-0.1,0.1-0.1,0.2-0.1c0.5,0.1,1.4,0.3,1.5,0.3c0.1,0,0.1,0.2,0.1,0.2c-0.3,0.2-1,0.7-1.4,1C27.4,15.7,27.3,15.7,27.3,15.7z
			 M37,18.4c-5,0-8.9-0.5-8.9-1.1c0-0.5,3.9-1.3,8.9-1.3c4.8,0,9,0.6,9,1.2C46,18.1,41.3,18.4,37,18.4z M46.7,15.6c0,0-0.1,0-0.1,0
			c-0.4-0.2-1-0.7-1.4-0.9c-0.1,0,0-0.2,0-0.2c0.1,0,1-0.3,1.5-0.3c0.1,0,0.2,0,0.2,0C47.1,14.4,47.1,15.4,46.7,15.6z M45.2,9.3
			c0.1,0.1,0,0.2-0.2,0.1c-0.5-0.1-0.9,0.4-0.4,1c-0.6,0-0.9-0.8-0.2-1.5C45,8.3,45.5,8.3,46,8.7C45.3,8.5,44.9,8.9,45.2,9.3z
			 M47.6,10.8c-0.1-0.1-1.8-0.9-1.9-1c-0.1-0.1,0-0.1,0.1-0.1c0.1,0,1.9,0.9,2,0.9C47.8,10.7,47.7,10.9,47.6,10.8z M48.5,11.7
			c-0.3,0-0.3-0.1-0.3-0.2c0.1-0.3,0.3-0.6,0.6-0.7c0.2-0.1,0.3,0.2,0.3,0.4C49.1,11.4,49,11.7,48.5,11.7z M49.3,9.9
			c0,0.1-0.2,0.2-0.2,0.1c0.1-0.7,0.6-1.7,0.9-2c0.1-0.1,0.2-0.1,0.1,0C49.8,8.5,49.4,9.4,49.3,9.9z M49.5,7.6C50,7.1,50.7,7,51.3,7
			c-0.3,0.4-0.4,0.6-0.5,1C50.9,7.4,50.9,7.1,49.5,7.6z M53.3,9.6c-0.3-0.5-0.8-1.1-2.4-1c0.4-0.6,0.8-0.8,1.5-0.8
			c0.7,0,1.2,0.4,1.2,1C53.6,9.2,53.5,9.5,53.3,9.6z"/>
		<path class="st5" d="M37,16.4c5.1,0,7.8,0.5,7.8,0.9c0,0.3-0.5,0.4-0.6,0.4c-0.1,0-0.2-0.1-0.1-0.2c0.1,0,0.2-0.1,0.2-0.2
			c0-0.2-2.2-0.6-7.3-0.7c-4.1,0-7.2,0.4-7.2,0.7c0,0.1,0,0.1,0.2,0.1c0.1,0,0.1,0.2,0,0.2c-0.2,0-0.6-0.1-0.6-0.3
			C29.4,16.8,33.5,16.4,37,16.4z"/>
	</g>
	<g>
		<path class="st5" d="M23.6,18.7l-0.1-0.1c-1,0.1-1.9,0-2.8-0.6c-0.4-0.3-2-1.3-2.2-1.4c0.1-0.1,0.5-0.4,0.8-0.7l-0.1-0.1
			c-0.4,0.3-0.9,0.6-1.1,0.7c0.8,0.5,2.1,1.4,2.5,1.6C21.7,19,22.6,18.8,23.6,18.7z"/>
		<path class="st5" d="M21.4,22l-0.1-0.1c-1,0.1-1.9,0-2.8-0.6c-0.4-0.3-2-1.3-2.2-1.4c0.1-0.1,0.5-0.4,0.8-0.7L17,19.1
			c-0.4,0.3-0.9,0.6-1.1,0.7c0.8,0.5,2.1,1.4,2.5,1.6C19.5,22.2,20.4,22.1,21.4,22z"/>
		<path class="st5" d="M18.8,24.7l-0.3-0.2c-0.4,0.1-0.8,0.2-1,0.2c-0.3,0-0.1,0.1,0,0.1C17.9,24.9,18.5,24.8,18.8,24.7z"/>
		<path class="st5" d="M14.2,23.1c0.1-0.1,0.5-0.4,0.8-0.7l-0.1-0.1c-0.4,0.3-0.9,0.6-1.1,0.7c0.8,0.5,2.1,1.4,2.5,1.6
			c1.2,0.8,2.1,0.6,3.1,0.5l-0.1-0.1c-1,0.1-1.9,0-2.8-0.6C16,24.3,14.4,23.3,14.2,23.1z"/>
		<path class="st5" d="M16.7,28l-0.3-0.2c-0.4,0.1-0.8,0.2-1,0.2c-0.3,0-0.1,0.1,0,0.1C15.7,28.1,16.3,28.1,16.7,28z"/>
		<path class="st5" d="M17.2,28.5L17,28.4c-1,0.1-1.9,0-2.8-0.6c-0.4-0.3-2-1.3-2.2-1.4c0.1-0.1,0.5-0.4,0.8-0.7l-0.1-0.1
			c-0.4,0.3-0.9,0.6-1.1,0.7c0.8,0.5,2.1,1.4,2.5,1.6C15.3,28.7,16.2,28.6,17.2,28.5z"/>
		<path class="st5" d="M55,16c0.3,0.3,0.7,0.5,0.8,0.7c-0.2,0.2-1.8,1.2-2.2,1.4c-0.9,0.6-1.9,0.7-2.8,0.6l-0.1,0.1
			c1,0.1,1.9,0.3,3.1-0.5c0.4-0.2,1.7-1.1,2.5-1.6c-0.2-0.1-0.7-0.4-1.1-0.7L55,16z"/>
		<path class="st5" d="M57.1,19.2c0.3,0.3,0.7,0.5,0.8,0.7c-0.2,0.2-1.8,1.2-2.2,1.4c-0.9,0.6-1.9,0.7-2.8,0.6L52.8,22
			c1,0.1,1.9,0.3,3.1-0.5c0.4-0.2,1.7-1.1,2.5-1.6c-0.2-0.1-0.7-0.4-1.1-0.7L57.1,19.2z"/>
		<path class="st5" d="M56.7,24.9c0.1,0,0.3-0.1,0-0.1c-0.2,0-0.6-0.1-1-0.2l-0.3,0.2C55.7,24.8,56.3,24.9,56.7,24.9z"/>
		<path class="st5" d="M54.9,25.2c1,0.1,1.9,0.3,3.1-0.5c0.4-0.2,1.7-1.1,2.5-1.6c-0.2-0.1-0.7-0.4-1.1-0.7l-0.1,0.1
			c0.3,0.3,0.7,0.5,0.8,0.7c-0.2,0.2-1.8,1.2-2.2,1.4c-0.9,0.6-1.9,0.7-2.8,0.6L54.9,25.2z"/>
		<path class="st5" d="M61.5,25.6l-0.1,0.1c0.3,0.3,0.7,0.5,0.8,0.7c-0.2,0.2-1.8,1.2-2.2,1.4c-0.9,0.6-1.9,0.7-2.8,0.6L57,28.5
			c1,0.1,1.9,0.3,3.1-0.5c0.4-0.2,1.7-1.1,2.5-1.6C62.4,26.2,61.9,26,61.5,25.6z"/>
	</g>
	<g>
		<g>
			<path class="st5" d="M27.9,33c-0.2,0-0.3-0.1-0.5-0.2c-0.1,0-0.3,0-0.4,0.1c-0.1,0.2-0.2,0.1-0.2,0c0-0.2,0.1-4.7,0.1-4.9
				c0-0.4,0-0.5-0.4-0.4c-0.1,0-0.1-0.2,0-0.2c0.1,0,0.9-0.3,1-0.3c0.1,0,0.1,0,0.1,0.1c0,0.1,0,0.3,0,0.5c0.1-0.2,0.3-0.4,0.5-0.6
				c0.1-0.1,0.2-0.1,0.3-0.1c0.4,0.3,1,1.1,0.9,3C29.4,30.8,28.6,33.1,27.9,33z M28.1,27.8c-0.2,0-0.3,0.2-0.5,0.5
				c0,1.1-0.1,2.9-0.2,4.1c0.4,0.1,0.4,0.3,0.5,0.3c0.1,0,0.1,0,0.2-0.1c0.4-0.3,0.7-1.2,0.7-1.7C28.8,29,28.4,27.8,28.1,27.8z"/>
			<path class="st5" d="M30.3,32.8c0,0.2-0.3,0.1-0.3,0c0-0.2-0.1-2.5-0.1-2.7c0-0.3-0.2-0.3-0.4-0.4c-0.1,0-0.1-0.1,0-0.2
				c0.1,0,0.9-0.4,1-0.4c0.1,0,0.1,0.1,0.1,0.1C30.6,29.7,30.5,31.9,30.3,32.8z M30.3,28.6c-0.1,0.2-0.3,0.1-0.3,0
				c0-0.1-0.1-0.4-0.1-0.5c0-0.1-0.1-0.2-0.2-0.2c0,0-0.1-0.1,0-0.1c0,0,0.5-0.2,0.7-0.3c0.1,0,0.1,0,0.1,0.1
				C30.5,27.7,30.3,28.5,30.3,28.6z"/>
			<path class="st5" d="M31.6,32.7c-0.4,0-0.8-0.3-0.9-0.4c0-0.1-0.1-0.1,0-0.1c0.1,0,0.3-0.4,0.3-0.5c0-0.1,0.1,0,0.1,0
				c0.1,0.3,0.3,0.7,0.6,0.7c0.2,0,0.4-0.3,0.4-0.6c0-0.4-1.3-0.4-1.3-1.5c0-0.3,0.1-0.8,0.8-1.2c0.1-0.1,0.1-0.1,0.2,0
				c0,0,0.4,0.3,0.6,0.5c0.1,0,0.1,0,0.1,0.1c0,0.1-0.2,0.2-0.2,0.3c0,0-0.2,0-0.2,0c-0.2-0.1-0.4-0.3-0.5-0.4c0,0,0,0-0.1,0
				c-0.2,0.1-0.2,0.3-0.2,0.5c0,0.6,1.2,0.6,1.2,1.4C32.6,31.9,32.2,32.7,31.6,32.7z"/>
			<path class="st5" d="M33.7,32.7c-0.7,0-1-0.8-1-1.6c0-0.7,0.6-1.4,0.9-1.8c0.1-0.1,0.1-0.1,0.2-0.1c0,0,0.4,0.4,0.6,0.6
				c0,0,0.2,0,0.2,0.1c0,0.1-0.2,0.3-0.3,0.3c-0.1,0.1-0.2,0.1-0.3,0c-0.2-0.1-0.3-0.3-0.4-0.4c0,0,0,0,0,0
				c-0.2,0.2-0.3,0.6-0.3,0.9c0,1.1,0.3,1.6,0.7,1.6c0.2,0,0.3-0.2,0.5-0.4c0.1-0.1,0.1,0,0.1,0.1C34.4,32.4,34.2,32.7,33.7,32.7z"
				/>
			<path class="st5" d="M35.6,32.7c-0.7,0-1-0.8-1-1.6c0-0.7,0.5-1.4,0.8-1.8c0.1-0.1,0.3-0.1,0.3-0.1c0.2,0.1,0.8,0.6,0.8,1
				c0,0.2-0.9,0.9-1.3,1.2c0.1,0.6,0.4,0.8,0.7,0.8c0.3,0,0.5-0.2,0.7-0.4c0-0.1,0.1,0,0.1,0.1C36.4,32.4,36.1,32.7,35.6,32.7z
				 M35.5,29.7C35.5,29.6,35.5,29.6,35.5,29.7c-0.3,0.3-0.3,0.7-0.3,1c0,0.2,0,0.4,0,0.5c0.3-0.2,0.7-0.7,0.7-1
				C35.9,30,35.7,29.8,35.5,29.7z"/>
		</g>
		<g>
			<path class="st5" d="M39.2,33c-0.2,0-0.3-0.1-0.5-0.1c-0.1,0-0.3,0-0.4,0.1c0,0.1-0.2,0.2-0.2,0c0-0.2,0-4.6,0-4.8
				c0-0.3-0.1-0.4-0.4-0.4c-0.1,0-0.1-0.1,0-0.2c0.1,0,0.8-0.4,0.9-0.4c0.1,0,0.2,0.1,0.2,0.1c0,0.1,0,0.2,0,0.4
				c0.1-0.2,0.3-0.4,0.5-0.6c0.1-0.1,0.2-0.1,0.3-0.1c0.6,0.3,1.1,1.2,1.1,3.1C40.6,31.1,39.8,33,39.2,33z M39.1,27.7
				c-0.2,0-0.3,0.2-0.4,0.4c0,1,0,2.8-0.1,4.2c0.4,0.1,0.4,0.3,0.5,0.3c0.1,0,0.1,0,0.2-0.1c0.5-0.4,0.6-1.3,0.6-1.9
				C39.9,28.4,39.5,27.7,39.1,27.7z"/>
			<path class="st5" d="M41.8,32.7c-0.5,0-1-0.8-1-1.7c0-0.9,0.7-1.8,1.2-1.8c0.6,0,1,0.9,1,1.7C43,31.6,42.3,32.7,41.8,32.7z
				 M41.7,29.6c-0.2,0-0.4,0.4-0.4,0.7c0,1.1,0.5,1.9,0.7,1.9c0.3,0,0.4-0.3,0.4-0.7C42.5,30.5,42,29.6,41.7,29.6z"/>
			<path class="st5" d="M44.3,32.7c-0.6,0-1-0.9-1-1.6c0-0.7,0.5-1.5,0.9-1.8c0.2-0.1,0.2-0.1,0.3,0c0,0,0.3,0.4,0.5,0.6
				c0,0,0.2,0,0.1,0.1c0,0.1-0.2,0.2-0.3,0.3c-0.1,0.1-0.2,0.1-0.3,0c-0.2-0.1-0.3-0.4-0.4-0.5c0,0,0,0-0.1,0
				c-0.2,0.1-0.3,0.4-0.3,0.8c0,1.1,0.4,1.7,0.8,1.7c0.2,0,0.4-0.2,0.5-0.4c0.1-0.1,0.1,0,0.1,0.1C44.9,32.3,44.7,32.7,44.3,32.7z"
				/>
			<path class="st5" d="M46.3,32.7c-0.6,0-1.1-0.7-1.1-1.5c0-0.8,0.4-1.6,1-2c0.1-0.1,0.2,0,0.3,0c0.3,0.1,0.8,0.8,0.8,1.2
				c0,0.2-1,0.7-1.4,0.9c0.1,0.6,0.5,0.9,0.8,0.9c0.3,0,0.5-0.2,0.7-0.4c0.1-0.1,0.1,0.1,0.1,0.1C47,32.4,46.8,32.7,46.3,32.7z
				 M46.2,29.7c-0.1,0-0.1,0-0.1,0c-0.2,0.2-0.3,0.6-0.3,1c0,0.2,0,0.3,0,0.5c0.3-0.1,0.7-0.4,0.7-0.7
				C46.5,30.1,46.4,29.9,46.2,29.7z"/>
		</g>
	</g>
	<path class="st5" d="M60.8,25.9l1.7-1.1l-0.4-0.6l-1,0.7c-0.1-0.5-0.2-1.1-0.2-1.3c-0.8,0.5-2.1,1.3-2.5,1.6
		c-1,0.7-1.3,1.6-1.7,2.6L50,32c-0.1-1.2-0.2-2.4-0.2-3.6l6.6-4.2c0.2,0.1,1.1,0.3,1.5,0.3c0.1,0,0.2-0.1,0.1-0.1
		c-0.3-0.1-0.9-0.2-1.2-0.4l0.7-0.4c0.2,0.1,1,0.3,1.4,0.3c0.1,0,0.2-0.1,0.1-0.1c-0.3-0.1-0.8-0.3-1.2-0.4l0.6-0.4
		c0.4,0.1,1,0.4,1.2,0.4c0.1,0,0.2-0.1,0.1-0.1c-0.1-0.1-0.7-0.3-1-0.5l1.7-1.1L59.9,21l-1,0.7c-0.1-0.5-0.2-1.1-0.2-1.3
		c-0.8,0.5-2.1,1.3-2.5,1.6c-1,0.7-1.3,1.6-1.7,2.6l-4.8,3.1c-0.1-1.3-0.2-2.6-0.2-3.6l3.7-2.4c0.4,0.1,0.9,0.2,1.3,0.1
		c0.1,0,0.3-0.1,0-0.1c-0.2,0-0.6-0.1-1-0.2l0.6-0.4c0.2,0.1,1.1,0.3,1.5,0.3c0.1,0,0.2-0.1,0.1-0.1c-0.3-0.1-0.9-0.2-1.3-0.4
		l0.7-0.4c0.2,0.1,1,0.3,1.4,0.3c0.1,0,0.2-0.1,0.1-0.1c-0.3-0.1-0.8-0.3-1.2-0.4l0.6-0.4c0.4,0.1,1,0.4,1.2,0.4
		c0.1,0,0.2-0.1,0.1-0.1c-0.1-0.1-0.7-0.3-1-0.5l1.7-1.1l-0.4-0.6l-1,0.7c-0.1-0.5-0.2-1.1-0.2-1.3c-0.8,0.5-2.1,1.3-2.5,1.6
		c-1,0.7-1.3,1.6-1.7,2.6L49.5,23c0-0.3,0-0.5,0-0.7c0-0.3-0.1-0.3-0.3-0.3c-0.1,0-0.4,0-0.8,0.1c0,0,0-0.4,0-0.5
		c0-0.1,0-0.1-0.2-0.1c-0.1,0-0.4,0-0.7,0.1c0-0.3,0-0.6,0-0.9l3.6-2.3c0.4,0.1,0.9,0.2,1.3,0.1c0.1,0,0.3-0.1,0-0.1
		c-0.2,0-0.6-0.1-1-0.2l-0.2,0.1l0.8-0.5c0.2,0.1,1.1,0.3,1.5,0.3c0.1,0,0.2-0.1,0.1-0.1c-0.3-0.1-0.9-0.2-1.2-0.4l0.7-0.4
		c0.2,0.1,1,0.3,1.4,0.3c0.1,0,0.2-0.1,0.1-0.1c-0.3-0.1-0.8-0.3-1.2-0.4l0.6-0.4c0.4,0.1,1,0.4,1.2,0.4c0.1,0,0.2-0.1,0.1-0.1
		c-0.1-0.1-0.7-0.3-1-0.5l1.7-1.1l-0.4-0.6l-1,0.7c-0.1-0.5-0.2-1.1-0.2-1.3c-0.8,0.5-2.1,1.3-2.5,1.6c-1,0.7-1.3,1.6-1.7,2.6
		l-4.3,2.8c-0.3,0-0.6,0-0.8,0c-2.2,0-3.5-0.7-5.2-0.7c-0.8,0-1.6,0.1-2.4,0.4c-0.2,0.1-0.4,0-0.6,0c-0.2-0.1-0.9-0.4-1.9-0.4
		c-1.7,0-4.1,0.8-6.1,0.8c-0.1,0-0.3,0-0.4,0L24,18c-0.4-0.9-0.6-1.9-1.7-2.6c-0.4-0.3-1.7-1.1-2.5-1.6c0,0.2-0.1,0.8-0.2,1.3
		l-1-0.7l-0.4,0.6l1.7,1.1c-0.3,0.2-0.8,0.4-1,0.5c-0.1,0,0,0.1,0.1,0.1c0.3,0,0.8-0.3,1.2-0.4l0.6,0.4c-0.4,0.1-0.8,0.3-1.2,0.4
		c-0.1,0,0,0.1,0.1,0.1c0.4,0,1.2-0.2,1.4-0.3l0.7,0.4c-0.3,0.1-0.9,0.3-1.3,0.4c-0.1,0,0,0.1,0.1,0.1c0.4,0,1.3-0.2,1.5-0.3
		l0.6,0.4c-0.4,0.1-0.8,0.2-1,0.2c-0.3,0-0.1,0.1,0,0.1c0.4,0,0.9,0,1.3-0.1l3.3,2.1c0,0.2,0,0.5,0,0.8c-0.3,0-0.6-0.1-0.7-0.1
		c-0.2,0-0.2,0-0.2,0.2c0,0.2,0,0.3,0,0.5c-0.1,0-0.7,0-0.8-0.1c-0.2,0-0.2,0-0.2,0.3c0,0,0,0.3-0.1,0.8l-2.6-1.7
		c-0.4-0.9-0.6-1.9-1.7-2.6c-0.4-0.3-1.7-1.1-2.5-1.6c0,0.2-0.1,0.8-0.2,1.3l-1-0.7L16,18.3l1.7,1.1c-0.3,0.2-0.8,0.4-1,0.5
		c-0.1,0,0,0.1,0.1,0.1c0.3,0,0.8-0.3,1.2-0.4l0.6,0.4c-0.3,0.1-0.8,0.3-1.2,0.4c-0.1,0,0,0.1,0.1,0.1c0.4,0,1.2-0.2,1.4-0.3
		l0.7,0.4c-0.3,0.1-0.9,0.3-1.2,0.4c-0.1,0,0,0.1,0.1,0.1c0.4,0,1.3-0.2,1.5-0.3l0.9,0.6l-0.3-0.2c-0.4,0.1-0.8,0.2-1,0.2
		c-0.3,0-0.1,0.1,0,0.1c0.4,0,0.9,0,1.3-0.1l3.4,2.2c-0.1,0.9-0.2,2.2-0.3,3.6l-4.4-2.8c-0.4-0.9-0.7-1.9-1.7-2.6
		c-0.4-0.3-1.7-1.1-2.5-1.6c0,0.2-0.1,0.8-0.2,1.3l-1-0.7l-0.4,0.6l1.7,1.1c-0.3,0.2-0.8,0.4-1,0.5c-0.1,0,0,0.1,0.1,0.1
		c0.3,0,0.8-0.3,1.2-0.4l0.6,0.4c-0.3,0.1-0.8,0.3-1.2,0.4c-0.1,0,0,0.1,0.1,0.1c0.4,0,1.2-0.2,1.4-0.3l0.7,0.4
		c-0.4,0.1-0.9,0.3-1.3,0.4c-0.1,0,0,0.1,0.1,0.1c0.4,0,1.3-0.2,1.5-0.3l6.2,4c-0.1,1.1-0.2,2.4-0.3,3.6l-6.2-4
		c-0.4-0.9-0.6-1.9-1.7-2.6c-0.4-0.3-1.7-1.1-2.5-1.6c0,0.2-0.1,0.8-0.2,1.3l-1-0.7l-0.4,0.6l1.7,1.1c-0.3,0.2-0.8,0.4-1,0.5
		c-0.1,0,0,0.1,0.1,0.1c0.3,0,0.8-0.3,1.2-0.4l0.6,0.4c-0.3,0.1-0.8,0.3-1.2,0.4c-0.1,0,0,0.1,0.1,0.1c0.4,0,1.2-0.2,1.4-0.3
		l0.7,0.4c-0.3,0.1-0.9,0.3-1.2,0.4c-0.1,0,0,0.1,0.1,0.1c0.4,0,1.3-0.2,1.5-0.3l8,5.1c-0.1,0.9-0.1,1.8-0.2,2.6l-5.7,3.7
		c-0.1-0.2-0.4-0.6-0.5-0.7c-0.2,0.1-0.9,0.4-1.2,0.6c-0.9,0.6-1.6,1.8-1.5,2.6c0.7,0.5,2.1,0.3,3-0.3c0.4-0.2,1-0.7,1.1-0.9
		c0-0.1-0.1-0.3-0.3-0.6c-1.1,0.7-1.7,0.9-2.5,1l0,0c1.1-0.5,2.7-1.5,3.8-2.2l3.8-2.4c-0.1,1.5-0.2,2.8-0.3,3.9L20,42
		c-0.1-0.2-0.4-0.6-0.5-0.7c-0.2,0.1-0.9,0.4-1.2,0.6c-0.9,0.6-1.6,1.8-1.5,2.6c0.7,0.5,2.1,0.3,3-0.3c0.4-0.2,1-0.7,1.1-0.9
		c0-0.1-0.1-0.3-0.3-0.6c-1.1,0.7-1.7,0.9-2.5,1l0,0c1.1-0.5,2.7-1.5,3.8-2.2l1.3-0.9c-0.1,1.1-0.1,1.7-0.1,1.8c0,0.6,0,0.7,0.7,0.5
		c0.4-0.1,1.6-0.5,3-0.8l-4.6,2.9c-0.1-0.2-0.4-0.6-0.5-0.7c-0.2,0.1-0.9,0.4-1.2,0.6c-0.9,0.6-1.6,1.8-1.5,2.6
		c0.7,0.5,2.1,0.3,3-0.3c0.4-0.2,1-0.7,1.1-0.9c0-0.1-0.1-0.3-0.3-0.6c-1.1,0.7-1.7,0.9-2.5,1l0,0c1.1-0.5,2.7-1.5,3.8-2.2l4.7-3
		c2-0.4,4.2-0.6,6.2-0.3c0,0,0,0.1,0,0.1l-10.6,6.8c-0.1-0.2-0.4-0.6-0.5-0.7c-0.2,0.1-0.9,0.4-1.2,0.6c-0.9,0.6-1.6,1.8-1.5,2.6
		c0.7,0.5,2.1,0.3,3-0.3c0.4-0.2,1-0.7,1.1-0.9c0-0.1-0.1-0.3-0.3-0.6c-1.1,0.7-1.7,0.9-2.5,1l0,0c1.1-0.5,2.7-1.5,3.8-2.2l9.2-5.9
		c0.8,0.5,2.8,0.5,3.7,0l9.2,5.9c1.1,0.7,2.7,1.6,3.8,2.2l0,0c-0.7-0.1-1.4-0.4-2.5-1c-0.1,0.2-0.2,0.4-0.3,0.6
		c0.1,0.1,0.7,0.6,1.1,0.9c0.9,0.6,2.3,0.8,3,0.3c0.1-0.8-0.6-2-1.5-2.6c-0.4-0.2-1.1-0.6-1.2-0.6c-0.1,0.1-0.4,0.5-0.5,0.7
		l-10.5-6.8c0,0,0-0.1,0-0.1c1.9-0.3,4.2,0,6.2,0.4l4.7,3c1.1,0.7,2.7,1.6,3.8,2.2l0,0c-0.7-0.1-1.4-0.4-2.5-1
		c-0.1,0.2-0.2,0.4-0.3,0.6c0.1,0.1,0.7,0.6,1.1,0.9c0.9,0.6,2.3,0.8,3,0.3c0.1-0.8-0.6-2-1.5-2.6c-0.4-0.2-1.1-0.6-1.2-0.6
		c-0.1,0.1-0.4,0.5-0.5,0.7l-4.5-2.9C49,42.7,50,43,50.2,43c0.4,0.1,0.5-0.1,0.5-0.7c0-0.4,0-1-0.1-1.7l1.8,1.2
		c1.1,0.7,2.7,1.6,3.8,2.2l0,0c-0.7-0.1-1.4-0.4-2.5-1c-0.1,0.2-0.2,0.4-0.3,0.6c0.1,0.1,0.7,0.6,1.1,0.9c0.9,0.6,2.3,0.8,3,0.3
		c0.1-0.8-0.6-2-1.5-2.6c-0.4-0.2-1.1-0.6-1.2-0.6c-0.1,0.1-0.4,0.5-0.5,0.7l-3.7-2.4c-0.1-1.1-0.2-2.5-0.3-3.9l4.2,2.7
		c1.1,0.7,2.7,1.6,3.8,2.2l0,0c-0.8-0.1-1.4-0.4-2.5-1c-0.1,0.2-0.2,0.4-0.3,0.6c0.1,0.1,0.7,0.6,1.1,0.9c0.9,0.6,2.3,0.8,3,0.3
		c0.1-0.8-0.6-2-1.5-2.6c-0.4-0.2-1.1-0.6-1.2-0.6c-0.1,0.1-0.4,0.5-0.5,0.7l-6.1-3.9c0-0.7-0.1-1.3-0.1-2l7.5-4.8
		c0.4,0.1,0.9,0.2,1.3,0.1c0.1,0,0.3-0.1,0-0.1c-0.2,0-0.6-0.1-1-0.2l-0.3,0.2l0.9-0.6c0.2,0.1,1.1,0.3,1.5,0.3
		c0.1,0,0.2-0.1,0.1-0.1c-0.3-0.1-0.9-0.2-1.2-0.4l0.7-0.4c0.2,0.1,1,0.3,1.4,0.3c0.1,0,0.2-0.1,0.1-0.1c-0.3-0.1-0.8-0.3-1.2-0.4
		l0.6-0.4c0.4,0.1,1,0.4,1.2,0.4c0.1,0,0.2-0.1,0.1-0.1C61.6,26.3,61.1,26.1,60.8,25.9z M58.1,21.1c0-0.1,0.1-0.1,0.1,0
		c0,0.1,0,0.7,0,1.1L58,22.3C58,21.9,58.1,21.3,58.1,21.1z M57.3,21.6c0-0.1,0.2-0.2,0.2,0c-0.1,0.3-0.1,0.9-0.1,1.2L57,23
		C57.1,22.7,57.1,21.9,57.3,21.6z M56.4,22.2c0-0.1,0.2-0.2,0.2,0c-0.1,0.3-0.2,0.9-0.2,1.3L56,23.6C56,23.4,56.2,22.5,56.4,22.2z
		 M55.5,23c0-0.1,0.2-0.2,0.1,0c-0.1,0.2-0.2,0.7-0.2,1l-0.3,0.2C55.1,23.9,55.3,23.3,55.5,23z M56,17.8c0-0.1,0.1-0.1,0.1,0
		c0,0.1,0,0.7,0,1.1l-0.3,0.2C55.9,18.6,55.9,18.1,56,17.8z M55.2,18.3c0-0.1,0.2-0.2,0.2,0c-0.1,0.3-0.1,0.9-0.1,1.2l-0.3,0.2
		C54.9,19.5,55,18.7,55.2,18.3z M54.3,18.9c0-0.1,0.2-0.2,0.2,0c-0.1,0.3-0.2,0.9-0.2,1.3l-0.3,0.2C53.9,20.1,54.1,19.2,54.3,18.9z
		 M53.4,19.7c0-0.1,0.2-0.2,0.1,0c-0.1,0.2-0.2,0.7-0.2,1L53,20.9C53,20.6,53.2,20.1,53.4,19.7z M53.9,14.6c0-0.1,0.1-0.1,0.1,0
		c0,0.1,0,0.7,0,1.1l-0.3,0.2C53.8,15.4,53.8,14.8,53.9,14.6z M53.1,15.1c0-0.1,0.2-0.2,0.2,0c-0.1,0.3-0.1,0.9-0.1,1.2l-0.3,0.2
		C52.8,16.2,52.9,15.4,53.1,15.1z M52.1,15.7c0-0.1,0.2-0.2,0.2,0c-0.1,0.3-0.2,0.9-0.2,1.3l-0.3,0.2C51.8,16.9,52,16,52.1,15.7z
		 M51.2,16.5c0-0.1,0.2-0.2,0.1,0c-0.1,0.2-0.2,0.7-0.2,1l-0.3,0.2C50.9,17.3,51.1,16.8,51.2,16.5z M20.2,15.6c0-0.4,0-1,0-1.1
		c0-0.1,0.1,0,0.1,0c0.1,0.2,0.1,0.8,0.1,1.3L20.2,15.6z M21.1,16.3c0-0.4-0.1-0.9-0.1-1.2c0-0.1,0.1,0,0.2,0
		c0.2,0.4,0.2,1.2,0.3,1.4L21.1,16.3z M22.1,16.9c0-0.4-0.1-1-0.2-1.3c0-0.1,0.1,0,0.2,0c0.2,0.3,0.3,1.2,0.4,1.5L22.1,16.9z
		 M23.1,17.5c-0.1-0.4-0.2-0.8-0.2-1c-0.1-0.2,0.1-0.1,0.1,0c0.2,0.3,0.3,0.9,0.4,1.2L23.1,17.5z M18,18.9c0-0.4,0-1,0-1.1
		c0-0.1,0.1,0,0.1,0c0.1,0.2,0.1,0.8,0.1,1.3L18,18.9z M19,19.5c0-0.4-0.1-0.9-0.1-1.2c0-0.1,0.1,0,0.2,0c0.2,0.4,0.2,1.2,0.3,1.4
		L19,19.5z M20,20.1c0-0.4-0.1-1-0.2-1.3c0-0.1,0.1,0,0.2,0c0.2,0.4,0.3,1.2,0.4,1.5L20,20.1z M21,20.8c-0.1-0.4-0.2-0.8-0.2-1
		c-0.1-0.2,0.1-0.1,0.1,0c0.2,0.3,0.3,0.9,0.4,1.2L21,20.8z M15.9,22.2c0-0.4,0-1,0-1.1c0-0.1,0.1,0,0.1,0c0.1,0.3,0.1,0.8,0.1,1.3
		L15.9,22.2z M16.9,22.8c0-0.4-0.1-0.9-0.1-1.2c0-0.1,0.1,0,0.2,0c0.1,0.4,0.2,1.2,0.3,1.4L16.9,22.8z M17.9,23.4
		c0-0.4-0.1-1-0.2-1.3c0-0.1,0.1,0,0.2,0c0.2,0.3,0.3,1.2,0.4,1.5L17.9,23.4z M18.8,24c-0.1-0.4-0.2-0.8-0.2-1
		c-0.1-0.2,0.1-0.1,0.1,0c0.2,0.3,0.3,0.9,0.4,1.2L18.8,24z M13.8,25.4c0-0.4,0-1,0-1.1c0-0.1,0.1,0,0.1,0c0.1,0.3,0.1,0.8,0.1,1.3
		L13.8,25.4z M14.7,26c0-0.4-0.1-0.9-0.1-1.2c0-0.1,0.1,0,0.2,0c0.2,0.4,0.2,1.2,0.3,1.4L14.7,26z M15.7,26.6c0-0.4-0.1-1-0.2-1.3
		c0-0.1,0.1,0,0.2,0c0.2,0.3,0.3,1.2,0.4,1.5L15.7,26.6z M16.7,27.3c-0.1-0.4-0.2-0.8-0.2-1c-0.1-0.2,0.1-0.1,0.1,0
		c0.2,0.3,0.3,0.9,0.4,1.2L16.7,27.3z M26.8,21.1c0.6,0.1,1.2,0.3,2,0.3c2.1,0,4.2-0.9,6.3-0.9c0.9,0,1.4,0.3,1.7,0.5
		c0.1,0.1,0.1,0.2,0.1,0.3c0,3.5,0.2,14,0,18.1c0,0.2,0.3,0.2,0.4,0c0.2-3.7,0.2-14.2,0.2-18.1c0-0.1,0-0.2,0.1-0.2
		c0.3-0.2,1-0.6,2.2-0.6c1.9,0,3.3,0.8,5.5,0.8c0.4,0,1.4-0.1,1.7-0.1c0,5,1.1,12.7,1,18.8c-1.4,0.4-3.8-0.9-6.4-0.9
		c-1.8,0-3.4,0.5-4,0.8c-0.3,0.1-0.3,0.1-0.6,0c-0.2-0.1-1.7-0.9-4-0.9c-3.8,0-5.7,1.2-7.4,0.9C25.7,38.2,26.8,22.2,26.8,21.1z
		 M49.1,41.2c-1.9,0.3-4.7-0.9-8.2-0.9c-1,0-2.4,0.2-3.3,0.7c-0.3,0.1-0.5,0.1-0.6,0c-1.1-0.4-2-0.7-4.3-0.7c-3.7,0-5.7,1.2-8.1,0.9
		c-0.1,0-0.1,0-0.1-0.2c0.4-6,1-14.1,1.4-19.3c0-0.1,0-0.1,0.1-0.1c0.1,0,0.2,0,0.3,0c-0.2,4.3-0.8,13.8-1.2,19
		c2.3,0.1,3.5-0.8,7.8-0.8c2,0,3.4,0.3,4,0.6c0.2,0.1,0.3,0.1,0.5,0c0.1-0.1,1.3-0.6,4-0.6c2.9,0,5.3,1.1,7,0.8
		c0.2-4.4-0.8-12.8-0.9-18.7c0.2,0,0.4,0,0.4,0c0.1,0,0.1,0,0.1,0.1c0.1,3,1.1,19,1.1,19.1C49.1,41.1,49.1,41.2,49.1,41.2z
		 M57.8,26.2c-0.1,0.2-0.2,0.7-0.2,1l-0.3,0.2c0.1-0.4,0.2-0.9,0.4-1.2C57.7,26.1,57.8,26,57.8,26.2z M58.5,26.6l-0.3,0.2
		c0-0.2,0.2-1.1,0.4-1.5c0-0.1,0.2-0.2,0.2,0C58.6,25.7,58.5,26.3,58.5,26.6z M59.5,26l-0.3,0.2c0-0.2,0.1-1,0.3-1.4
		c0-0.1,0.2-0.2,0.2,0C59.6,25.1,59.5,25.6,59.5,26z M60.2,25.6c0.1-0.4,0.1-1,0.1-1.3c0-0.1,0.1-0.1,0.1,0c0,0.1,0,0.7,0,1.1
		L60.2,25.6z"/>
</g>
</svg>
